<svg width="393" height="550" viewBox="0 0 393 550" fill="none" xmlns="http://www.w3.org/2000/svg">
<path opacity="0.3" d="M133.44 164.12V338.69L197.16 377.3L269.28 339.35V159.17" fill="#3F3F40"/>
<path opacity="0.3" d="M197.16 196.9V377.3L269.28 339.35V159.17L197.16 196.9Z" fill="#3F3F40"/>
<path opacity="0.3" d="M133.44 164.12L206.04 125.62L269.28 159.17L197.16 196.9L133.44 164.12Z" fill="#3F3F40"/>
<path opacity="0.18" d="M133.44 164.12V338.69L197.16 377.3L269.28 339.35V159.17" fill="#3F3F40"/>
<path d="M133.44 164.12V338.69L197.16 377.3L269.28 339.35V159.17" fill="#5350B2"/>
<path d="M197.16 196.9V377.3L269.28 339.35V159.17L197.16 196.9Z" fill="#5350B2"/>
<path opacity="0.12" d="M133.44 164.12V338.69L197.16 377.3L269.28 339.35V159.17" fill="#3F3F40"/>
<path d="M197.16 196.9V377.3L269.28 339.35V159.17L197.16 196.9Z" fill="#5350B2"/>
<path opacity="0.31" d="M197.16 196.9V377.3L269.28 339.35V159.17L197.16 196.9Z" fill="#3F3F40"/>
<path d="M133.44 164.12L206.04 125.62L269.28 159.17L197.16 196.9L133.44 164.12Z" fill="#5350B2"/>
<path d="M320.16 127.82L295.8 154.99H313.44V201.08H326.52V155.32H343.2L320.16 127.82Z" fill="#9898FA"/>
<path d="M321.72 239.36L326.52 232.87V160.71H338.4L343.2 155.32L329.64 139.04L316.8 160.05L321.72 239.36Z" fill="#9898FA"/>
<path opacity="0.31" d="M329.64 139.04L320.16 127.82L295.8 154.99H313.44V201.08H319.32L321.72 239.36L326.52 232.87V201.08V160.71H338.4L343.2 155.32L329.64 139.04Z" fill="#3F3F40"/>
<path d="M315.36 133.21L291 160.49H308.52V239.36H321.72V160.71H338.4L315.36 133.21Z" fill="#9898FA"/>
<path d="M125.28 240.13L85.08 395.89C84.12 399.63 90.3601 401.28 91.3201 397.43L131.52 241.67C132.48 238.04 126.24 236.39 125.28 240.13Z" fill="#9898FA"/>
<path d="M162.96 258.61L122.76 414.37C121.8 418.11 128.04 419.76 129 416.02L169.2 260.15C170.28 256.41 163.92 254.87 162.96 258.61Z" fill="#9898FA"/>
<path d="M121.08 264.66L158.76 284.02C162.48 285.89 165.72 280.72 162 278.85L124.32 259.6C120.6 257.73 117.36 262.9 121.08 264.66Z" fill="#9898FA"/>
<path d="M117.12 286.33L153.36 304.92C157.08 306.79 160.32 301.62 156.72 299.75L120.48 281.16C116.76 279.29 113.4 284.46 117.12 286.33Z" fill="#9898FA"/>
<path d="M112.68 303.93L148.8 322.41C152.52 324.28 155.76 319.11 152.04 317.24L115.92 298.76C112.32 296.89 109.08 302.06 112.68 303.93Z" fill="#9898FA"/>
<path d="M107.04 322.74L142.8 341.11C146.52 342.98 149.76 337.81 146.16 335.94L110.28 317.57C106.56 315.7 103.32 320.87 107.04 322.74Z" fill="#9898FA"/>
<path d="M102.12 340.01L138 358.38C141.72 360.25 144.96 355.08 141.36 353.21L105.48 334.84C101.76 332.97 98.3999 338.14 102.12 340.01Z" fill="#9898FA"/>
<path d="M96.6 360.14L134.4 379.5C138.12 381.37 141.36 376.2 137.76 374.33L100.08 354.97C96.24 353.1 93 358.27 96.6 360.14Z" fill="#9898FA"/>
<path d="M264.48 105.71L138 131.56V165.66L187.32 192.94L264.48 151.47V105.71Z" fill="#F5F5FD"/>
<path opacity="0.2" d="M264.48 105.71L138 131.56V165.66L187.32 192.94L264.48 151.47V105.71Z" fill="#3F3F40"/>
<path opacity="0.31" d="M264.96 105.71L186.6 154.99L138 131.56L174.6 113.19" fill="#3F3F40"/>
<path d="M128.76 124.52L175.44 149.27C189.72 147.18 203.4 142.78 216 136.18C236.88 125.29 265.68 104.94 265.68 104.94L222.72 82.1699L162 114.95C162 114.95 145.32 122.43 128.76 124.52Z" fill="#F5F5FD"/>
<path d="M176.16 148.28L175.92 148.17L132.24 125.07L133.92 124.74C144.84 122.32 155.52 119.02 165.84 114.62L221.04 84.8096L261 106.04L260.16 106.59C259.92 106.81 233.88 125.07 215.16 134.86C203.04 141.02 189.96 145.53 176.28 148.28H176.16ZM135.96 125.51L176.4 146.96C189.72 144.21 202.56 139.7 214.56 133.65C231.36 124.85 253.92 109.23 258.48 106.04L220.92 86.1296L166.44 115.61C156.6 119.79 146.4 123.09 135.96 125.51Z" fill="#3F3F40"/>
<path opacity="0.2" d="M186.6 154.99V192.94L264.48 151.47V105.71L186.6 154.99Z" fill="#3F3F40"/>
<path opacity="0.12" d="M190.8 107.47L219.72 90.9697L251.28 106.26C251.28 106.26 218.4 124.52 215.88 125.84C213.36 127.16 186 140.91 174 140.36L146.4 126.28L190.8 107.47Z" fill="#3F3F40"/>
<path opacity="0.3" d="M200.28 130.35C213.999 130.35 225.12 125.425 225.12 119.35C225.12 113.274 213.999 108.35 200.28 108.35C186.561 108.35 175.44 113.274 175.44 119.35C175.44 125.425 186.561 130.35 200.28 130.35Z" fill="#FBFBFC"/>
<path opacity="0.31" d="M138 142.34C146.16 146.3 154.44 150.37 162.6 154.44L174.84 160.6L187.08 166.76H186.48L205.92 155.1L225.36 143.55L244.8 132C251.28 128.15 257.88 124.41 264.48 120.67C258.12 124.74 251.64 128.7 245.28 132.66L225.84 144.54L206.4 156.09L186.96 167.75L186.6 167.97L186.24 167.75L174.12 161.48L162 155.1C154.08 150.92 146.04 146.63 138 142.34Z" fill="#3F3F40"/>
<path opacity="0.31" d="M138 147.62C146.16 151.58 154.44 155.65 162.48 159.72L174.72 165.88L186.96 172.04H186.36L205.8 160.38L225.36 148.83L244.92 137.39C251.4 133.54 258 129.8 264.6 126.06C258.24 130.13 251.76 134.09 245.4 138.05L226.08 149.82L206.4 161.48L186.96 173.14L186.6 173.36L186.24 173.14L174.12 166.87L162 160.49C154.08 156.31 146.04 152.02 138 147.62Z" fill="#3F3F40"/>
<path opacity="0.31" d="M138.12 154.55C146.28 158.51 154.56 162.58 162.72 166.65L174.96 172.81L187.2 178.97H186.6L206.04 167.31L225.48 155.76L245.04 144.32C251.52 140.47 258.12 136.73 264.72 132.99C258.36 136.95 251.88 141.02 245.52 144.98L226.2 156.75L206.64 168.3L187.2 179.96L186.84 180.18L186.48 179.96L174.36 173.69L162.24 167.31C154.2 163.13 146.16 158.84 138.12 154.55Z" fill="#3F3F40"/>
<path opacity="0.31" d="M138 161.26C146.16 165.22 154.44 169.29 162.48 173.36L174.72 179.52L186.96 185.68H186.36L205.8 174.02L225.36 162.47L244.92 151.03C251.4 147.18 258 143.44 264.6 139.7C258.24 143.66 251.76 147.73 245.4 151.69L226.08 163.46L206.4 175.01L186.96 186.67L186.6 186.89L186.24 186.67L174.12 180.4L162 174.02C154.08 169.84 146.04 165.55 138 161.26Z" fill="#3F3F40"/>
<path d="M167.16 112.2L216 136.07V177.54L234.36 167.53V124.96L186.6 101.64L167.16 112.2Z" fill="#FBFBFC"/>
<path opacity="0.12" d="M167.16 112.2L216 136.07V177.54L234.36 167.53V124.96L186.6 101.64L167.16 112.2Z" fill="#3F3F40"/>
<path opacity="0.12" d="M216 136.07L234.36 124.96V167.53L216 177.54V136.07Z" fill="#3F3F40"/>
<path d="M205.56 116.05C206.76 116.16 207.96 116.49 209.04 116.93C209.76 117.26 210.48 117.7 210.84 118.36C211.2 118.91 211.2 119.57 210.72 120.12C210.24 120.78 209.52 121.33 208.68 121.66L211.92 123.09L210.12 123.97L206.76 122.43C205.2 122.98 203.52 123.31 201.84 123.31C200.04 123.42 198.24 123.09 196.56 122.43L199.92 120.78C200.64 121 201.36 121.11 202.2 121.22C202.8 121.22 203.28 121.22 203.88 121.11L198.96 118.91C197.52 119.24 196.32 119.57 195.36 119.68C194.28 119.9 193.2 119.9 192.12 119.79C190.92 119.68 189.72 119.35 188.64 118.91C187.8 118.58 187.2 118.14 186.72 117.37C186.48 116.82 186.6 116.16 186.96 115.61C187.44 115.06 188.04 114.62 188.76 114.18L185.52 112.75L187.32 111.87L190.56 113.3C192.12 112.75 193.68 112.42 195.36 112.42C197.04 112.31 198.72 112.64 200.4 113.19L196.92 114.84C196.32 114.62 195.6 114.51 194.88 114.51C194.4 114.51 193.92 114.51 193.44 114.62L198.24 116.82H198.48C199.92 116.49 201.12 116.16 202.2 116.05C203.4 116.05 204.48 115.94 205.56 116.05ZM206.64 119.57C206.64 119.24 206.28 118.91 205.68 118.58C205.08 118.25 204.36 118.14 203.64 118.14C202.92 118.14 202.32 118.25 201.6 118.36L206.04 120.34C206.4 120.12 206.64 119.9 206.64 119.57ZM195.84 117.48L191.64 115.61C191.4 115.72 191.16 116.05 191.16 116.38C191.16 116.71 191.4 117.04 192.12 117.26C192.72 117.48 193.44 117.7 194.16 117.7C194.64 117.7 195.24 117.59 195.84 117.48Z" fill="#3F3F40"/>
<path d="M247.44 104.83C247.44 104.83 248.16 114.84 239.64 115.39C239.64 115.39 246.84 118.14 248.04 123.31C248.04 123.31 248.88 116.05 256.2 115.28C250.8 114.29 247.2 109.89 247.44 104.83Z" fill="#FBFBFC"/>
<path d="M167.28 169.071C167.28 169.071 171.48 164.451 171.84 162.911C172.2 161.371 172.44 154.991 173.64 154.881C174.84 154.771 175.56 156.091 176.28 155.871C177.36 155.541 178.44 155.431 179.52 155.321C179.76 155.431 183.96 159.501 183.48 161.041C183 162.581 176.52 166.651 176.52 166.651L168.6 174.571" fill="#FCBF81"/>
<path d="M127.56 160.71C127.56 160.71 126.84 154.77 127.56 153.23C128.28 151.69 131.88 146.41 130.92 145.64C129.96 144.87 128.64 145.64 128.16 145.2C127.68 144.76 126.12 143.11 125.76 143.11C125.4 143.11 119.52 144.32 119.04 145.97C118.56 147.62 121.56 154.22 121.56 154.22L123.36 164.78" fill="#FCBF81"/>
<path d="M136.08 190.19C136.08 190.19 128.16 157.85 127.08 157.63C124.44 157.41 121.68 157.96 119.4 159.28C116.64 160.93 122.64 197.45 122.64 197.45" fill="#5350B2"/>
<path opacity="0.31" d="M136.08 190.19C136.08 190.19 128.16 157.85 127.08 157.63C124.44 157.41 121.68 157.96 119.4 159.28C116.64 160.93 122.64 197.45 122.64 197.45" fill="#3F3F40"/>
<path d="M132.12 323.95L137.4 326.15C137.64 327.14 138.36 327.8 139.44 328.13C139.56 328.35 139.92 328.46 140.16 328.57C142.32 328.9 144.6 328.68 146.64 328.13C149.28 327.58 159.72 324.83 156.36 331.21C154.44 332.31 152.28 333.19 150.24 334.07C149.16 334.62 147.96 335.06 146.88 335.61C146.28 335.94 145.56 336.16 144.96 336.27C143.52 336.38 140.04 335.06 139.92 335.39C139.8 335.72 139.2 338.25 139.2 338.25C139.2 338.25 129.72 340.78 129.84 335.06C129.84 334.29 132.12 323.95 132.12 323.95Z" fill="#3F3F40"/>
<path d="M127.32 315.81C127.32 315.81 136.8 312.73 138.96 312.73C141.12 312.73 144.72 313.72 141.24 317.13C141.24 317.13 131.16 322.19 129.84 322.3C128.52 322.41 125.52 321.31 125.52 321.53C125.52 321.75 124.92 324.06 124.92 324.06C124.92 324.06 116.64 326.26 116.76 321.31C116.76 320.65 118.8 311.63 118.8 311.63" fill="#3F3F40"/>
<path d="M129 272.691C129.36 255.971 130.2 239.141 127.8 222.421C128.04 218.131 124.8 220.661 125.16 219.011C128.04 205.371 148.32 223.301 148.32 223.301C149.16 224.071 148.92 228.251 149.04 229.241C149.52 234.631 150 239.911 150.12 245.301C151.44 272.361 147.72 298.871 143.88 325.711C138.84 329.671 135.72 330.771 128.52 327.471C128.52 309.761 128.76 292.051 129 274.341V272.691Z" fill="#3F3F40"/>
<path d="M116.88 302.17C117.36 295.57 118.2 288.86 118.8 282.26C119.76 272.14 119.52 262.02 119.64 251.9C120.96 239.36 122.4 223.41 122.4 223.41L133.68 226.27C133.68 226.27 141 313.72 129.72 317.35C118.44 320.98 116.64 314.27 116.64 314.27C116.64 314.27 116.76 309.32 116.88 302.17Z" fill="#3F3F40"/>
<path d="M121.56 222.861C121.56 221.101 121.92 219.34 122.28 217.69C123.12 212.08 123.12 206.471 122.28 200.971C121.56 195.581 121.56 190.081 125.16 185.461C130.32 182.711 137.64 185.131 141.96 188.101C147.84 192.061 149.88 219.341 149.76 227.811C149.76 229.021 141.84 229.571 141 229.681C136.92 230.011 132.84 229.791 128.76 228.801C125.88 228.141 122.4 226.821 121.56 223.961C121.56 223.521 121.56 223.191 121.56 222.861Z" fill="#5350B2"/>
<path d="M128.88 230.671C129 230.231 129.48 230.011 129.96 230.231C130.44 230.341 130.68 230.781 130.44 231.221C125.04 246.291 133.92 261.911 132.24 277.311C131.28 285.451 129.72 293.371 129.24 301.511C128.76 310.201 128.76 318.891 129.48 327.471C129.6 328.461 127.92 328.351 127.8 327.361C127.08 318.671 126.96 310.091 127.56 301.401C128.16 292.821 129.96 284.351 130.68 275.881C132.12 260.701 123.6 245.631 128.88 230.671Z" fill="#3F3F40"/>
<path d="M135.24 169.951C135.72 170.061 140.28 178.641 138.84 184.031C137.4 189.421 127.44 184.251 124.8 180.401C122.16 176.551 125.88 168.081 135.24 169.951Z" fill="#FCBF81"/>
<path d="M135.12 171.161C135.12 172.811 134.16 174.351 132.6 175.121C129.84 176.111 127.68 176.881 127.8 177.981C127.92 179.081 132.72 177.651 132.84 180.291C132.96 182.051 132.72 183.921 132.24 185.681C132 187.001 123.6 183.261 120.6 176.551C117.6 169.841 124.32 167.751 124.68 167.641C125.04 167.531 125.52 165.661 128.88 164.891C132.24 164.121 133.2 165.221 133.2 165.221C134.76 164.341 136.68 164.451 138.12 165.551C141.24 167.641 140.64 171.821 137.28 173.581L135.12 171.161Z" fill="#3F3F40"/>
<path d="M136.8 185.9C136.8 185.9 147 186.01 151.56 182.71C156.12 179.41 169.32 163.24 169.32 163.24C169.32 163.24 178.92 169.29 178.92 171.27C178.92 173.25 162.6 193.93 158.16 196.35C153.72 198.77 144.24 203.83 144.24 203.83" fill="#5350B2"/>
<path d="M147.24 202.07C147.24 202.07 143.76 201.96 142.2 202.07C140.64 202.18 149.4 217.14 149.4 217.14L147.24 202.07Z" fill="#5350B2"/>
<path opacity="0.31" d="M147.24 202.07C147.24 202.07 143.76 201.96 142.2 202.07C140.64 202.18 149.4 217.14 149.4 217.14L147.24 202.07Z" fill="#3F3F40"/>
<path d="M290.52 355.41C310.137 355.41 326.04 346.841 326.04 336.27C326.04 325.699 310.137 317.13 290.52 317.13C270.903 317.13 255 325.699 255 336.27C255 346.841 270.903 355.41 290.52 355.41Z" fill="#F5F5FD"/>
<path d="M255 336.27V330.77L258.84 335.17L255 336.27Z" fill="#F5F5FD"/>
<path d="M326.16 330.77V336.27H321.6L324.96 331.87L326.16 330.77Z" fill="#F5F5FD"/>
<path d="M290.52 349.91C310.137 349.91 326.04 341.341 326.04 330.77C326.04 320.199 310.137 311.63 290.52 311.63C270.903 311.63 255 320.199 255 330.77C255 341.341 270.903 349.91 290.52 349.91Z" fill="#5350B2"/>
<path d="M308.64 328.24C308.88 328.68 309 329.23 308.88 329.67L308.76 330.22H302.28C302.4 330.11 302.4 329.89 302.4 329.67C302.4 329.23 302.28 328.9 302.04 328.57C301.68 328.02 301.08 327.58 300.48 327.25C299.52 326.81 298.44 326.59 297.48 326.48C296.52 326.37 295.44 326.59 294.6 326.92C293.64 327.25 293.4 327.8 293.52 328.35C293.88 329.01 294.24 329.67 294.84 330.22C295.56 330.88 296.16 331.54 296.76 332.31C297.36 332.97 297.48 333.85 297.12 334.62C296.4 335.72 295.32 336.49 294 336.82C291.84 337.7 289.44 338.14 287.16 338.14C284.64 338.25 282.12 337.92 279.6 337.15L275.88 338.58L271.56 336.6L275.16 335.17C274.56 334.73 273.96 334.29 273.36 333.74C273 333.3 272.64 332.86 272.52 332.42C272.4 332.09 272.28 331.65 272.28 331.32C272.28 331.1 272.28 330.77 272.28 330.55L272.4 330.22H278.88C278.76 330.44 278.76 330.66 278.76 330.77C278.76 331.21 279 331.76 279.24 332.09C279.72 332.86 280.56 333.41 281.4 333.74C282.6 334.29 283.8 334.62 285.12 334.62C286.32 334.73 287.52 334.51 288.6 334.07C289.56 333.74 289.8 333.19 289.56 332.64C289.2 331.98 288.72 331.32 288.12 330.77C287.4 330.11 286.68 329.45 286.08 328.68C285.48 328.02 285.36 327.14 285.84 326.37C286.56 325.27 287.76 324.5 289.2 324.06C291.24 323.29 293.52 322.85 295.8 322.85C298.2 322.74 300.6 323.07 302.88 323.84L306.6 322.41L310.68 324.5L306.96 325.93C307.68 326.81 308.28 327.47 308.64 328.24Z" fill="#F5F5FD"/>
<path d="M290.64 348.26C273.36 348.26 259.44 340.45 259.44 330.99C259.44 321.53 273.48 313.72 290.64 313.72C307.8 313.72 321.84 321.53 321.84 330.99C321.84 340.45 307.8 348.26 290.64 348.26ZM290.64 316.25C274.92 316.25 262.2 322.85 262.2 330.99C262.2 339.13 274.92 345.73 290.64 345.73C306.36 345.73 319.08 339.13 319.08 330.99C319.08 322.85 306.36 316.25 290.64 316.25Z" fill="#F5F5FD"/>
<path d="M290.52 341.55C310.137 341.55 326.04 332.98 326.04 322.41C326.04 311.839 310.137 303.27 290.52 303.27C270.903 303.27 255 311.839 255 322.41C255 332.98 270.903 341.55 290.52 341.55Z" fill="#F5F5FD"/>
<path d="M255 322.41V316.91L258.84 321.31L255 322.41Z" fill="#F5F5FD"/>
<path d="M326.16 316.91V322.41H321.6L324.96 318.01L326.16 316.91Z" fill="#F5F5FD"/>
<path d="M290.52 336.05C310.137 336.05 326.04 327.48 326.04 316.91C326.04 306.339 310.137 297.77 290.52 297.77C270.903 297.77 255 306.339 255 316.91C255 327.48 270.903 336.05 290.52 336.05Z" fill="#5350B2"/>
<path d="M308.64 314.38C308.88 314.82 309 315.37 308.88 315.81L308.76 316.36H302.28C302.52 315.81 302.4 315.26 302.04 314.82C301.68 314.27 301.08 313.83 300.48 313.5C299.52 313.06 298.44 312.84 297.48 312.73C296.52 312.62 295.44 312.84 294.6 313.17C293.64 313.5 293.4 314.05 293.52 314.6C293.88 315.26 294.24 315.92 294.84 316.47C295.56 317.13 296.16 317.79 296.76 318.56C297.36 319.22 297.48 320.1 297.12 320.87C296.4 321.97 295.32 322.74 294 323.07C291.84 323.95 289.44 324.39 287.16 324.39C284.64 324.5 282.12 324.17 279.72 323.51L276 324.94L271.68 322.96L275.28 321.53C274.68 321.09 274.08 320.65 273.48 320.1C273.12 319.66 272.76 319.22 272.64 318.78C272.52 318.45 272.4 318.01 272.4 317.68C272.4 317.46 272.4 317.13 272.4 316.91L272.52 316.69H279C278.88 316.91 278.88 317.13 278.88 317.24C278.88 317.68 279.12 318.23 279.36 318.56C279.84 319.33 280.68 319.88 281.52 320.21C282.72 320.76 283.92 321.09 285.24 321.09C286.44 321.2 287.64 320.98 288.72 320.54C289.68 320.21 289.92 319.77 289.68 319.11C289.32 318.45 288.84 317.79 288.24 317.24C287.52 316.58 286.8 315.92 286.2 315.15C285.6 314.49 285.48 313.61 285.96 312.84C286.68 311.74 287.88 310.97 289.32 310.53C291.36 309.76 293.64 309.32 295.92 309.32C298.32 309.21 300.72 309.54 303 310.31L306.72 308.88L310.8 310.97L307.08 312.4C307.68 313.06 308.28 313.61 308.64 314.38Z" fill="#F5F5FD"/>
<path d="M290.64 334.51C273.36 334.51 259.44 326.7 259.44 317.24C259.44 307.78 273.48 299.97 290.64 299.97C307.8 299.97 321.84 307.67 321.84 317.24C321.84 326.81 307.8 334.51 290.64 334.51ZM290.64 302.39C274.92 302.39 262.2 308.99 262.2 317.13C262.2 325.27 274.92 331.87 290.64 331.87C306.36 331.87 319.08 325.27 319.08 317.13C319.08 308.99 306.36 302.39 290.64 302.39Z" fill="#F5F5FD"/>
<path d="M290.52 334.95C310.137 334.95 326.04 326.381 326.04 315.81C326.04 305.239 310.137 296.67 290.52 296.67C270.903 296.67 255 305.239 255 315.81C255 326.381 270.903 334.95 290.52 334.95Z" fill="#F5F5FD"/>
<path d="M255 315.81V310.31L258.84 314.71L255 315.81Z" fill="#F5F5FD"/>
<path d="M326.16 310.31V315.81H321.6L324.96 311.41L326.16 310.31Z" fill="#F5F5FD"/>
<path d="M290.52 329.45C310.137 329.45 326.04 320.881 326.04 310.31C326.04 299.739 310.137 291.17 290.52 291.17C270.903 291.17 255 299.739 255 310.31C255 320.881 270.903 329.45 290.52 329.45Z" fill="#5350B2"/>
<path d="M308.64 307.78C308.88 308.22 309 308.77 308.88 309.21L308.76 309.76H302.28C302.4 309.65 302.4 309.43 302.4 309.21C302.4 308.77 302.28 308.44 302.04 308.11C301.68 307.56 301.08 307.12 300.48 306.79C299.52 306.35 298.44 306.13 297.48 306.02C296.52 305.91 295.44 306.13 294.6 306.46C293.64 306.79 293.4 307.34 293.52 307.89C293.88 308.55 294.24 309.21 294.84 309.76C295.56 310.42 296.16 311.08 296.76 311.85C297.36 312.51 297.48 313.39 297.12 314.16C296.4 315.26 295.32 316.03 294 316.36C291.84 317.24 289.44 317.68 287.16 317.68C284.64 317.79 282.12 317.57 279.72 316.8L276 318.23L271.68 316.25L275.28 314.82C274.68 314.38 274.08 313.94 273.48 313.39C273.12 312.95 272.76 312.51 272.64 312.07C272.52 311.74 272.4 311.3 272.4 310.97C272.4 310.75 272.4 310.42 272.4 310.2L272.52 309.98H279C278.88 310.2 278.88 310.42 278.88 310.53C278.88 310.97 279.12 311.52 279.36 311.85C279.84 312.62 280.68 313.17 281.52 313.5C282.72 314.05 283.92 314.38 285.24 314.38C286.44 314.49 287.64 314.27 288.72 313.83C289.68 313.5 289.92 313.06 289.68 312.4C289.32 311.74 288.84 311.08 288.24 310.53C287.52 309.87 286.8 309.21 286.2 308.44C285.6 307.78 285.48 306.9 285.96 306.13C286.68 305.03 287.88 304.26 289.32 303.82C291.36 303.05 293.64 302.61 295.92 302.61C298.32 302.5 300.72 302.83 303 303.6L306.72 302.17L310.8 304.26L307.08 305.69C307.68 306.46 308.28 307.01 308.64 307.78Z" fill="#F5F5FD"/>
<path d="M290.64 327.91C273.36 327.91 259.44 320.1 259.44 310.64C259.44 301.18 273.48 293.37 290.64 293.37C307.8 293.37 321.84 301.18 321.84 310.64C321.84 320.1 307.8 327.91 290.64 327.91ZM290.64 295.79C274.92 295.79 262.2 302.39 262.2 310.53C262.2 318.67 274.92 325.27 290.64 325.27C306.36 325.27 319.08 318.67 319.08 310.53C319.08 302.39 306.36 295.79 290.64 295.79Z" fill="#F5F5FD"/>
<path d="M290.52 328.24C310.137 328.24 326.04 319.671 326.04 309.1C326.04 298.529 310.137 289.96 290.52 289.96C270.903 289.96 255 298.529 255 309.1C255 319.671 270.903 328.24 290.52 328.24Z" fill="#F5F5FD"/>
<path d="M255 309.1V303.6L258.84 308L255 309.1Z" fill="#F5F5FD"/>
<path d="M326.16 303.6V309.1H321.6L324.96 304.7L326.16 303.6Z" fill="#F5F5FD"/>
<path d="M290.52 322.74C310.137 322.74 326.04 314.171 326.04 303.6C326.04 293.029 310.137 284.46 290.52 284.46C270.903 284.46 255 293.029 255 303.6C255 314.171 270.903 322.74 290.52 322.74Z" fill="#5350B2"/>
<path d="M308.64 301.07C308.88 301.51 309 302.06 308.88 302.5L308.76 303.05H302.28C302.4 302.94 302.4 302.72 302.4 302.5C302.4 302.06 302.28 301.73 302.04 301.4C301.68 300.85 301.08 300.41 300.48 300.08C299.52 299.64 298.44 299.42 297.48 299.31C296.52 299.2 295.44 299.42 294.6 299.75C293.64 300.08 293.4 300.63 293.52 301.18C293.88 301.84 294.24 302.5 294.84 303.05C295.56 303.71 296.16 304.37 296.76 305.14C297.36 305.8 297.48 306.68 297.12 307.45C296.4 308.55 295.32 309.32 294 309.65C291.84 310.53 289.44 310.97 287.16 310.97C284.64 311.08 282.12 310.75 279.6 309.98L275.88 311.41L271.56 309.43L275.16 308C274.56 307.56 273.96 307.12 273.36 306.57C273 306.13 272.64 305.69 272.52 305.25C272.4 304.92 272.28 304.48 272.28 304.15C272.28 303.93 272.28 303.6 272.28 303.38L272.4 303.05H278.88C278.76 303.27 278.76 303.49 278.76 303.6C278.76 304.04 279 304.59 279.24 304.92C279.72 305.69 280.56 306.24 281.4 306.57C282.6 307.12 283.8 307.45 285.12 307.45C286.32 307.56 287.52 307.34 288.6 306.9C289.56 306.57 289.8 306.02 289.56 305.47C289.2 304.81 288.72 304.15 288.12 303.6C287.4 302.94 286.68 302.28 286.08 301.51C285.48 300.85 285.36 299.97 285.84 299.2C286.56 298.1 287.76 297.33 289.2 296.89C291.24 296.12 293.52 295.68 295.8 295.68C298.2 295.57 300.6 295.9 302.88 296.67L306.6 295.24L310.68 297.33L306.96 298.87C307.68 299.64 308.28 300.3 308.64 301.07Z" fill="#F5F5FD"/>
<path d="M290.64 321.09C273.36 321.09 259.44 313.28 259.44 303.82C259.44 294.36 273.48 286.55 290.64 286.55C307.8 286.55 321.84 294.36 321.84 303.82C321.84 313.28 307.8 321.09 290.64 321.09ZM290.64 289.08C274.92 289.08 262.2 295.68 262.2 303.82C262.2 311.96 274.92 318.56 290.64 318.56C306.36 318.56 319.08 311.96 319.08 303.82C319.08 295.68 306.36 289.08 290.64 289.08Z" fill="#F5F5FD"/>
<path d="M280.92 316.469C300.537 316.469 316.44 307.9 316.44 297.329C316.44 286.759 300.537 278.189 280.92 278.189C261.303 278.189 245.4 286.759 245.4 297.329C245.4 307.9 261.303 316.469 280.92 316.469Z" fill="#F5F5FD"/>
<path d="M245.4 297.33V291.83L249.24 296.23L245.4 297.33Z" fill="#F5F5FD"/>
<path d="M316.56 291.83V297.33H312L315.36 292.93L316.56 291.83Z" fill="#F5F5FD"/>
<path d="M280.92 310.969C300.537 310.969 316.44 302.4 316.44 291.829C316.44 281.259 300.537 272.689 280.92 272.689C261.303 272.689 245.4 281.259 245.4 291.829C245.4 302.4 261.303 310.969 280.92 310.969Z" fill="#5350B2"/>
<path d="M299.04 289.3C299.28 289.74 299.4 290.29 299.28 290.73L299.16 291.28H292.68C292.68 291.06 292.8 290.95 292.8 290.73C292.8 290.29 292.68 289.96 292.44 289.63C292.08 289.08 291.48 288.64 290.88 288.31C289.92 287.87 288.84 287.65 287.88 287.54C286.92 287.43 285.96 287.65 285 287.98C284.04 288.31 283.8 288.86 283.92 289.41C284.28 290.07 284.64 290.73 285.24 291.28C285.96 291.94 286.56 292.6 287.16 293.37C287.76 294.03 287.88 294.91 287.52 295.68C286.8 296.78 285.72 297.55 284.4 297.88C282.24 298.76 279.84 299.2 277.56 299.2C275.04 299.31 272.4 298.98 270 298.21L266.28 299.64L261.96 297.66L265.56 296.23C264.96 295.79 264.36 295.35 263.76 294.8C263.4 294.36 263.16 293.92 262.92 293.48C262.8 293.15 262.68 292.71 262.68 292.38C262.68 292.16 262.68 291.83 262.68 291.61L262.8 291.28H269.28C269.16 291.5 269.16 291.72 269.16 291.83C269.16 292.27 269.4 292.82 269.64 293.15C270.12 293.92 270.96 294.47 271.8 294.8C273 295.35 274.32 295.68 275.52 295.68C276.72 295.79 277.92 295.57 279 295.13C279.96 294.8 280.2 294.25 280.08 293.7C279.72 293.04 279.24 292.38 278.64 291.83C277.92 291.17 277.32 290.51 276.72 289.74C276.12 289.08 276 288.2 276.48 287.43C277.2 286.33 278.4 285.56 279.84 285.12C282 284.35 284.16 283.91 286.44 283.91C288.84 283.8 291.24 284.13 293.52 284.9L297.24 283.47L301.32 285.56L297.6 286.99C298.2 287.87 298.68 288.53 299.04 289.3Z" fill="#F5F5FD"/>
<path d="M281.04 309.32C263.76 309.32 249.84 301.62 249.84 292.05C249.84 282.48 263.88 274.78 281.04 274.78C298.2 274.78 312.24 282.59 312.24 292.05C312.24 301.51 298.32 309.32 281.04 309.32ZM281.04 277.31C265.32 277.31 252.6 283.91 252.6 292.05C252.6 300.19 265.32 306.79 281.04 306.79C296.76 306.79 309.48 300.19 309.48 292.05C309.48 283.91 296.76 277.31 281.04 277.31Z" fill="#F5F5FD"/>
<path d="M280.92 309.54C300.537 309.54 316.44 300.97 316.44 290.4C316.44 279.829 300.537 271.26 280.92 271.26C261.303 271.26 245.4 279.829 245.4 290.4C245.4 300.97 261.303 309.54 280.92 309.54Z" fill="#F5F5FD"/>
<path d="M245.4 290.399V284.899L249.24 289.299L245.4 290.399Z" fill="#F5F5FD"/>
<path d="M316.56 284.899V290.399H312L315.36 285.999L316.56 284.899Z" fill="#F5F5FD"/>
<path d="M280.92 304.04C300.537 304.04 316.44 295.47 316.44 284.9C316.44 274.329 300.537 265.76 280.92 265.76C261.303 265.76 245.4 274.329 245.4 284.9C245.4 295.47 261.303 304.04 280.92 304.04Z" fill="#5350B2"/>
<path d="M299.04 282.26C299.28 282.7 299.4 283.25 299.28 283.69L299.16 284.24H292.68C292.68 284.02 292.8 283.91 292.8 283.69C292.8 283.25 292.68 282.92 292.44 282.59C292.08 282.04 291.48 281.6 290.88 281.27C289.92 280.83 288.84 280.61 287.88 280.5C286.92 280.39 285.96 280.61 285 280.94C284.04 281.27 283.8 281.82 283.92 282.37C284.28 283.03 284.64 283.69 285.24 284.24C285.96 284.9 286.56 285.56 287.16 286.33C287.76 286.99 287.88 287.87 287.52 288.64C286.8 289.74 285.72 290.51 284.4 290.84C282.24 291.61 279.84 292.16 277.56 292.16C275.04 292.27 272.4 291.94 270 291.17L266.28 292.6L261.96 290.62L265.56 289.19C264.96 288.75 264.36 288.31 263.76 287.76C263.4 287.32 263.04 286.88 262.92 286.44C262.8 286.11 262.68 285.67 262.68 285.34C262.68 285.12 262.68 284.79 262.68 284.57L262.8 284.35H269.28C269.16 284.57 269.16 284.79 269.16 284.9C269.16 285.34 269.4 285.89 269.64 286.22C270.12 286.99 270.96 287.54 271.8 287.87C273 288.42 274.32 288.75 275.52 288.75C276.72 288.86 277.92 288.64 279 288.2C279.96 287.87 280.2 287.43 280.08 286.77C279.72 286.11 279.24 285.45 278.64 284.9C277.92 284.24 277.32 283.58 276.72 282.81C276.12 282.15 276 281.27 276.48 280.5C277.2 279.4 278.4 278.63 279.84 278.19C282 277.42 284.16 276.98 286.44 276.98C288.84 276.87 291.24 277.2 293.52 277.97L297.24 276.54L301.32 278.63L297.6 280.28C298.08 280.94 298.68 281.6 299.04 282.26Z" fill="#F5F5FD"/>
<path d="M281.04 302.39C263.76 302.39 249.84 294.58 249.84 285.12C249.84 275.66 263.88 267.85 281.04 267.85C298.2 267.85 312.24 275.66 312.24 285.12C312.24 294.58 298.32 302.39 281.04 302.39ZM281.04 270.27C265.32 270.27 252.6 276.87 252.6 285.01C252.6 293.15 265.32 299.75 281.04 299.75C296.76 299.75 309.48 293.15 309.48 285.01C309.48 276.87 296.76 270.27 281.04 270.27Z" fill="#F5F5FD"/>
<path d="M281.52 302.94C301.137 302.94 317.04 294.371 317.04 283.8C317.04 273.229 301.137 264.66 281.52 264.66C261.903 264.66 246 273.229 246 283.8C246 294.371 261.903 302.94 281.52 302.94Z" fill="#F5F5FD"/>
<path d="M246 283.799V278.189L249.84 282.699L246 283.799Z" fill="#F5F5FD"/>
<path d="M317.16 278.189V283.799H312.6L315.84 279.289L317.16 278.189Z" fill="#F5F5FD"/>
<path d="M281.52 297.33C301.137 297.33 317.04 288.761 317.04 278.19C317.04 267.619 301.137 259.05 281.52 259.05C261.903 259.05 246 267.619 246 278.19C246 288.761 261.903 297.33 281.52 297.33Z" fill="#5350B2"/>
<path d="M299.52 275.66C299.76 276.1 299.88 276.65 299.76 277.09L299.64 277.64H293.16C293.16 277.42 293.28 277.31 293.28 277.09C293.28 276.65 293.16 276.32 292.92 275.99C292.56 275.44 291.96 275 291.36 274.67C290.4 274.23 289.32 274.01 288.36 273.9C287.4 273.79 286.32 274.01 285.48 274.34C284.52 274.67 284.28 275.22 284.4 275.77C284.76 276.43 285.12 277.09 285.72 277.64C286.44 278.3 287.04 278.96 287.64 279.73C288.24 280.39 288.36 281.27 288 282.04C287.28 283.14 286.2 283.91 284.88 284.24C282.72 285.12 280.32 285.56 278.04 285.56C275.52 285.67 273 285.34 270.48 284.57L266.76 286L262.44 284.02L266.04 282.59C265.44 282.15 264.84 281.71 264.24 281.16C263.88 280.72 263.52 280.28 263.4 279.84C263.28 279.51 263.16 279.07 263.16 278.74C263.16 278.52 263.16 278.19 263.16 277.97L263.28 277.75H269.76C269.64 277.97 269.64 278.19 269.64 278.41C269.64 278.85 269.88 279.4 270.12 279.73C270.6 280.5 271.44 281.05 272.28 281.38C273.48 281.93 274.68 282.26 276 282.26C277.2 282.37 278.4 282.15 279.48 281.71C280.44 281.38 280.68 280.94 280.44 280.28C280.08 279.62 279.6 278.96 279 278.41C278.28 277.75 277.56 277.09 276.96 276.32C276.36 275.66 276.24 274.78 276.72 274.01C277.44 272.91 278.64 272.14 280.08 271.7C282.12 270.93 284.4 270.49 286.68 270.49C289.08 270.38 291.48 270.71 293.76 271.48L297.48 270.05L301.56 272.14L297.84 273.57C298.68 274.23 299.28 274.89 299.52 275.66Z" fill="#F5F5FD"/>
<path d="M281.64 295.79C264.36 295.79 250.44 287.98 250.44 278.52C250.44 269.06 264.48 261.25 281.64 261.25C298.8 261.25 312.84 268.95 312.84 278.52C312.84 288.09 298.8 295.79 281.64 295.79ZM281.64 263.67C265.92 263.67 253.2 270.27 253.2 278.41C253.2 286.55 265.92 293.15 281.64 293.15C297.36 293.15 310.08 286.55 310.08 278.41C310.08 270.27 297.36 263.67 281.64 263.67Z" fill="#F5F5FD"/>
<path d="M310.8 269.06C310.8 269.06 311.76 281.93 300.84 282.7C300.84 282.7 310.08 286.22 311.52 292.93C311.52 292.93 312.72 283.58 321.96 282.59C315.24 281.16 310.44 275.44 310.8 269.06Z" fill="#FBFBFC"/>
<path d="M95.1308 500.14C94.1974 500.14 93.3574 499.98 92.6108 499.66C91.8641 499.327 91.2774 498.86 90.8508 498.26C90.4241 497.66 90.2108 496.96 90.2108 496.16H92.6508C92.7041 496.76 92.9374 497.253 93.3508 497.64C93.7774 498.027 94.3708 498.22 95.1308 498.22C95.9174 498.22 96.5308 498.033 96.9708 497.66C97.4108 497.273 97.6308 496.78 97.6308 496.18C97.6308 495.713 97.4908 495.333 97.2108 495.04C96.9441 494.747 96.6041 494.52 96.1908 494.36C95.7908 494.2 95.2308 494.027 94.5108 493.84C93.6041 493.6 92.8641 493.36 92.2908 493.12C91.7308 492.867 91.2508 492.48 90.8508 491.96C90.4508 491.44 90.2508 490.747 90.2508 489.88C90.2508 489.08 90.4508 488.38 90.8508 487.78C91.2508 487.18 91.8108 486.72 92.5308 486.4C93.2508 486.08 94.0841 485.92 95.0308 485.92C96.3774 485.92 97.4774 486.26 98.3308 486.94C99.1974 487.607 99.6774 488.527 99.7708 489.7H97.2508C97.2108 489.193 96.9708 488.76 96.5308 488.4C96.0908 488.04 95.5108 487.86 94.7908 487.86C94.1374 487.86 93.6041 488.027 93.1908 488.36C92.7774 488.693 92.5708 489.173 92.5708 489.8C92.5708 490.227 92.6974 490.58 92.9508 490.86C93.2174 491.127 93.5508 491.34 93.9508 491.5C94.3508 491.66 94.8974 491.833 95.5908 492.02C96.5108 492.273 97.2574 492.527 97.8308 492.78C98.4174 493.033 98.9108 493.427 99.3108 493.96C99.7241 494.48 99.9308 495.18 99.9308 496.06C99.9308 496.767 99.7374 497.433 99.3508 498.06C98.9774 498.687 98.4241 499.193 97.6908 499.58C96.9708 499.953 96.1174 500.14 95.1308 500.14ZM112.721 494.22C112.721 494.633 112.694 495.007 112.641 495.34H104.221C104.288 496.22 104.614 496.927 105.201 497.46C105.788 497.993 106.508 498.26 107.361 498.26C108.588 498.26 109.454 497.747 109.961 496.72H112.421C112.088 497.733 111.481 498.567 110.601 499.22C109.734 499.86 108.654 500.18 107.361 500.18C106.308 500.18 105.361 499.947 104.521 499.48C103.694 499 103.041 498.333 102.561 497.48C102.094 496.613 101.861 495.613 101.861 494.48C101.861 493.347 102.088 492.353 102.541 491.5C103.008 490.633 103.654 489.967 104.481 489.5C105.321 489.033 106.281 488.8 107.361 488.8C108.401 488.8 109.328 489.027 110.141 489.48C110.954 489.933 111.588 490.573 112.041 491.4C112.494 492.213 112.721 493.153 112.721 494.22ZM110.341 493.5C110.328 492.66 110.028 491.987 109.441 491.48C108.854 490.973 108.128 490.72 107.261 490.72C106.474 490.72 105.801 490.973 105.241 491.48C104.681 491.973 104.348 492.647 104.241 493.5H110.341ZM117.625 490.84V496.94C117.625 497.353 117.718 497.653 117.905 497.84C118.105 498.013 118.438 498.1 118.905 498.1H120.305V500H118.505C117.478 500 116.692 499.76 116.145 499.28C115.598 498.8 115.325 498.02 115.325 496.94V490.84H114.025V488.98H115.325V486.24H117.625V488.98H120.305V490.84H117.625ZM137.522 488.98L130.762 505.18H128.402L130.642 499.82L126.302 488.98H128.842L131.942 497.38L135.162 488.98H137.522ZM144.022 500.18C142.982 500.18 142.042 499.947 141.202 499.48C140.362 499 139.702 498.333 139.222 497.48C138.742 496.613 138.502 495.613 138.502 494.48C138.502 493.36 138.749 492.367 139.242 491.5C139.736 490.633 140.409 489.967 141.262 489.5C142.116 489.033 143.069 488.8 144.122 488.8C145.176 488.8 146.129 489.033 146.982 489.5C147.836 489.967 148.509 490.633 149.002 491.5C149.496 492.367 149.742 493.36 149.742 494.48C149.742 495.6 149.489 496.593 148.982 497.46C148.476 498.327 147.782 499 146.902 499.48C146.036 499.947 145.076 500.18 144.022 500.18ZM144.022 498.2C144.609 498.2 145.156 498.06 145.662 497.78C146.182 497.5 146.602 497.08 146.922 496.52C147.242 495.96 147.402 495.28 147.402 494.48C147.402 493.68 147.249 493.007 146.942 492.46C146.636 491.9 146.229 491.48 145.722 491.2C145.216 490.92 144.669 490.78 144.082 490.78C143.496 490.78 142.949 490.92 142.442 491.2C141.949 491.48 141.556 491.9 141.262 492.46C140.969 493.007 140.822 493.68 140.822 494.48C140.822 495.667 141.122 496.587 141.722 497.24C142.336 497.88 143.102 498.2 144.022 498.2ZM161.976 488.98V500H159.696V498.7C159.336 499.153 158.863 499.513 158.276 499.78C157.703 500.033 157.089 500.16 156.436 500.16C155.569 500.16 154.789 499.98 154.096 499.62C153.416 499.26 152.876 498.727 152.476 498.02C152.089 497.313 151.896 496.46 151.896 495.46V488.98H154.156V495.12C154.156 496.107 154.403 496.867 154.896 497.4C155.389 497.92 156.063 498.18 156.916 498.18C157.769 498.18 158.443 497.92 158.936 497.4C159.443 496.867 159.696 496.107 159.696 495.12V488.98H161.976ZM167.264 490.58C167.598 490.02 168.038 489.587 168.584 489.28C169.144 488.96 169.804 488.8 170.564 488.8V491.16H169.984C169.091 491.16 168.411 491.387 167.944 491.84C167.491 492.293 167.264 493.08 167.264 494.2V500H164.984V488.98H167.264V490.58ZM181.855 500.18C180.989 500.18 180.209 500.027 179.515 499.72C178.835 499.4 178.295 498.973 177.895 498.44C177.495 497.893 177.282 497.287 177.255 496.62H179.615C179.655 497.087 179.875 497.48 180.275 497.8C180.689 498.107 181.202 498.26 181.815 498.26C182.455 498.26 182.949 498.14 183.295 497.9C183.655 497.647 183.835 497.327 183.835 496.94C183.835 496.527 183.635 496.22 183.235 496.02C182.849 495.82 182.229 495.6 181.375 495.36C180.549 495.133 179.875 494.913 179.355 494.7C178.835 494.487 178.382 494.16 177.995 493.72C177.622 493.28 177.435 492.7 177.435 491.98C177.435 491.393 177.609 490.86 177.955 490.38C178.302 489.887 178.795 489.5 179.435 489.22C180.089 488.94 180.835 488.8 181.675 488.8C182.929 488.8 183.935 489.12 184.695 489.76C185.469 490.387 185.882 491.247 185.935 492.34H183.655C183.615 491.847 183.415 491.453 183.055 491.16C182.695 490.867 182.209 490.72 181.595 490.72C180.995 490.72 180.535 490.833 180.215 491.06C179.895 491.287 179.735 491.587 179.735 491.96C179.735 492.253 179.842 492.5 180.055 492.7C180.269 492.9 180.529 493.06 180.835 493.18C181.142 493.287 181.595 493.427 182.195 493.6C182.995 493.813 183.649 494.033 184.155 494.26C184.675 494.473 185.122 494.793 185.495 495.22C185.869 495.647 186.062 496.213 186.075 496.92C186.075 497.547 185.902 498.107 185.555 498.6C185.209 499.093 184.715 499.48 184.075 499.76C183.449 500.04 182.709 500.18 181.855 500.18ZM187.779 494.44C187.779 493.333 188.006 492.353 188.459 491.5C188.926 490.647 189.552 489.987 190.339 489.52C191.139 489.04 192.019 488.8 192.979 488.8C193.846 488.8 194.599 488.973 195.239 489.32C195.892 489.653 196.412 490.073 196.799 490.58V488.98H199.099V500H196.799V498.36C196.412 498.88 195.886 499.313 195.219 499.66C194.552 500.007 193.792 500.18 192.939 500.18C191.992 500.18 191.126 499.94 190.339 499.46C189.552 498.967 188.926 498.287 188.459 497.42C188.006 496.54 187.779 495.547 187.779 494.44ZM196.799 494.48C196.799 493.72 196.639 493.06 196.319 492.5C196.012 491.94 195.606 491.513 195.099 491.22C194.592 490.927 194.046 490.78 193.459 490.78C192.872 490.78 192.326 490.927 191.819 491.22C191.312 491.5 190.899 491.92 190.579 492.48C190.272 493.027 190.119 493.68 190.119 494.44C190.119 495.2 190.272 495.867 190.579 496.44C190.899 497.013 191.312 497.453 191.819 497.76C192.339 498.053 192.886 498.2 193.459 498.2C194.046 498.2 194.592 498.053 195.099 497.76C195.606 497.467 196.012 497.04 196.319 496.48C196.639 495.907 196.799 495.24 196.799 494.48ZM206.354 497.96L209.474 488.98H211.894L207.694 500H204.974L200.794 488.98H203.234L206.354 497.96ZM214.777 487.52C214.364 487.52 214.017 487.38 213.737 487.1C213.457 486.82 213.317 486.473 213.317 486.06C213.317 485.647 213.457 485.3 213.737 485.02C214.017 484.74 214.364 484.6 214.777 484.6C215.177 484.6 215.517 484.74 215.797 485.02C216.077 485.3 216.217 485.647 216.217 486.06C216.217 486.473 216.077 486.82 215.797 487.1C215.517 487.38 215.177 487.52 214.777 487.52ZM215.897 488.98V500H213.617V488.98H215.897ZM224.451 488.8C225.317 488.8 226.091 488.98 226.771 489.34C227.464 489.7 228.004 490.233 228.391 490.94C228.777 491.647 228.971 492.5 228.971 493.5V500H226.711V493.84C226.711 492.853 226.464 492.1 225.971 491.58C225.477 491.047 224.804 490.78 223.951 490.78C223.097 490.78 222.417 491.047 221.911 491.58C221.417 492.1 221.171 492.853 221.171 493.84V500H218.891V488.98H221.171V490.24C221.544 489.787 222.017 489.433 222.591 489.18C223.177 488.927 223.797 488.8 224.451 488.8ZM236.319 488.8C237.172 488.8 237.926 488.973 238.579 489.32C239.246 489.653 239.766 490.073 240.139 490.58V488.98H242.439V500.18C242.439 501.193 242.226 502.093 241.799 502.88C241.372 503.68 240.752 504.307 239.939 504.76C239.139 505.213 238.179 505.44 237.059 505.44C235.566 505.44 234.326 505.087 233.339 504.38C232.352 503.687 231.792 502.74 231.659 501.54H233.919C234.092 502.113 234.459 502.573 235.019 502.92C235.592 503.28 236.272 503.46 237.059 503.46C237.979 503.46 238.719 503.18 239.279 502.62C239.852 502.06 240.139 501.247 240.139 500.18V498.34C239.752 498.86 239.226 499.3 238.559 499.66C237.906 500.007 237.159 500.18 236.319 500.18C235.359 500.18 234.479 499.94 233.679 499.46C232.892 498.967 232.266 498.287 231.799 497.42C231.346 496.54 231.119 495.547 231.119 494.44C231.119 493.333 231.346 492.353 231.799 491.5C232.266 490.647 232.892 489.987 233.679 489.52C234.479 489.04 235.359 488.8 236.319 488.8ZM240.139 494.48C240.139 493.72 239.979 493.06 239.659 492.5C239.352 491.94 238.946 491.513 238.439 491.22C237.932 490.927 237.386 490.78 236.799 490.78C236.212 490.78 235.666 490.927 235.159 491.22C234.652 491.5 234.239 491.92 233.919 492.48C233.612 493.027 233.459 493.68 233.459 494.44C233.459 495.2 233.612 495.867 233.919 496.44C234.239 497.013 234.652 497.453 235.159 497.76C235.679 498.053 236.226 498.2 236.799 498.2C237.386 498.2 237.932 498.053 238.439 497.76C238.946 497.467 239.352 497.04 239.659 496.48C239.979 495.907 240.139 495.24 240.139 494.48ZM249.434 500.18C248.567 500.18 247.787 500.027 247.094 499.72C246.414 499.4 245.874 498.973 245.474 498.44C245.074 497.893 244.86 497.287 244.834 496.62H247.194C247.234 497.087 247.454 497.48 247.854 497.8C248.267 498.107 248.78 498.26 249.394 498.26C250.034 498.26 250.527 498.14 250.874 497.9C251.234 497.647 251.414 497.327 251.414 496.94C251.414 496.527 251.214 496.22 250.814 496.02C250.427 495.82 249.807 495.6 248.954 495.36C248.127 495.133 247.454 494.913 246.934 494.7C246.414 494.487 245.96 494.16 245.574 493.72C245.2 493.28 245.014 492.7 245.014 491.98C245.014 491.393 245.187 490.86 245.534 490.38C245.88 489.887 246.374 489.5 247.014 489.22C247.667 488.94 248.414 488.8 249.254 488.8C250.507 488.8 251.514 489.12 252.274 489.76C253.047 490.387 253.46 491.247 253.514 492.34H251.234C251.194 491.847 250.994 491.453 250.634 491.16C250.274 490.867 249.787 490.72 249.174 490.72C248.574 490.72 248.114 490.833 247.794 491.06C247.474 491.287 247.314 491.587 247.314 491.96C247.314 492.253 247.42 492.5 247.634 492.7C247.847 492.9 248.107 493.06 248.414 493.18C248.72 493.287 249.174 493.427 249.774 493.6C250.574 493.813 251.227 494.033 251.734 494.26C252.254 494.473 252.7 494.793 253.074 495.22C253.447 495.647 253.64 496.213 253.654 496.92C253.654 497.547 253.48 498.107 253.134 498.6C252.787 499.093 252.294 499.48 251.654 499.76C251.027 500.04 250.287 500.18 249.434 500.18ZM265.753 488.8C266.606 488.8 267.359 488.973 268.013 489.32C268.679 489.653 269.199 490.073 269.573 490.58V488.98H271.873V500.18C271.873 501.193 271.659 502.093 271.233 502.88C270.806 503.68 270.186 504.307 269.373 504.76C268.573 505.213 267.613 505.44 266.493 505.44C264.999 505.44 263.759 505.087 262.773 504.38C261.786 503.687 261.226 502.74 261.093 501.54H263.353C263.526 502.113 263.893 502.573 264.453 502.92C265.026 503.28 265.706 503.46 266.493 503.46C267.413 503.46 268.153 503.18 268.713 502.62C269.286 502.06 269.573 501.247 269.573 500.18V498.34C269.186 498.86 268.659 499.3 267.993 499.66C267.339 500.007 266.593 500.18 265.753 500.18C264.793 500.18 263.913 499.94 263.113 499.46C262.326 498.967 261.699 498.287 261.233 497.42C260.779 496.54 260.553 495.547 260.553 494.44C260.553 493.333 260.779 492.353 261.233 491.5C261.699 490.647 262.326 489.987 263.113 489.52C263.913 489.04 264.793 488.8 265.753 488.8ZM269.573 494.48C269.573 493.72 269.413 493.06 269.093 492.5C268.786 491.94 268.379 491.513 267.873 491.22C267.366 490.927 266.819 490.78 266.233 490.78C265.646 490.78 265.099 490.927 264.593 491.22C264.086 491.5 263.673 491.92 263.353 492.48C263.046 493.027 262.893 493.68 262.893 494.44C262.893 495.2 263.046 495.867 263.353 496.44C263.673 497.013 264.086 497.453 264.593 497.76C265.113 498.053 265.659 498.2 266.233 498.2C266.819 498.2 267.366 498.053 267.873 497.76C268.379 497.467 268.786 497.04 269.093 496.48C269.413 495.907 269.573 495.24 269.573 494.48ZM279.647 500.18C278.607 500.18 277.667 499.947 276.827 499.48C275.987 499 275.327 498.333 274.847 497.48C274.367 496.613 274.127 495.613 274.127 494.48C274.127 493.36 274.374 492.367 274.867 491.5C275.361 490.633 276.034 489.967 276.887 489.5C277.741 489.033 278.694 488.8 279.747 488.8C280.801 488.8 281.754 489.033 282.607 489.5C283.461 489.967 284.134 490.633 284.627 491.5C285.121 492.367 285.367 493.36 285.367 494.48C285.367 495.6 285.114 496.593 284.607 497.46C284.101 498.327 283.407 499 282.527 499.48C281.661 499.947 280.701 500.18 279.647 500.18ZM279.647 498.2C280.234 498.2 280.781 498.06 281.287 497.78C281.807 497.5 282.227 497.08 282.547 496.52C282.867 495.96 283.027 495.28 283.027 494.48C283.027 493.68 282.874 493.007 282.567 492.46C282.261 491.9 281.854 491.48 281.347 491.2C280.841 490.92 280.294 490.78 279.707 490.78C279.121 490.78 278.574 490.92 278.067 491.2C277.574 491.48 277.181 491.9 276.887 492.46C276.594 493.007 276.447 493.68 276.447 494.48C276.447 495.667 276.747 496.587 277.347 497.24C277.961 497.88 278.727 498.2 279.647 498.2ZM286.861 494.44C286.861 493.333 287.088 492.353 287.541 491.5C288.008 490.647 288.634 489.987 289.421 489.52C290.221 489.04 291.101 488.8 292.061 488.8C292.928 488.8 293.681 488.973 294.321 489.32C294.974 489.653 295.494 490.073 295.881 490.58V488.98H298.181V500H295.881V498.36C295.494 498.88 294.968 499.313 294.301 499.66C293.634 500.007 292.874 500.18 292.021 500.18C291.074 500.18 290.208 499.94 289.421 499.46C288.634 498.967 288.008 498.287 287.541 497.42C287.088 496.54 286.861 495.547 286.861 494.44ZM295.881 494.48C295.881 493.72 295.721 493.06 295.401 492.5C295.094 491.94 294.688 491.513 294.181 491.22C293.674 490.927 293.128 490.78 292.541 490.78C291.954 490.78 291.408 490.927 290.901 491.22C290.394 491.5 289.981 491.92 289.661 492.48C289.354 493.027 289.201 493.68 289.201 494.44C289.201 495.2 289.354 495.867 289.661 496.44C289.981 497.013 290.394 497.453 290.901 497.76C291.421 498.053 291.968 498.2 292.541 498.2C293.128 498.2 293.674 498.053 294.181 497.76C294.688 497.467 295.094 497.04 295.401 496.48C295.721 495.907 295.881 495.24 295.881 494.48ZM303.456 485.2V500H301.176V485.2H303.456Z" fill="#5350B2"/>
</svg>
