<svg width="393" height="515" viewBox="0 0 393 515" fill="none" xmlns="http://www.w3.org/2000/svg">
<path d="M322.5 255.301L334.2 248.601V302.501L323.3 308.901L322.5 255.301Z" fill="#5350B2" fill-opacity="0.7"/>
<path d="M322.5 255.301L310.8 248.601L311.1 301.801L323.3 308.901L322.5 255.301Z" fill="#5350B2" fill-opacity="0.7"/>
<path opacity="0.19" d="M322.5 255.301L310.8 248.601L311.1 301.801L323.3 308.901L322.5 255.301Z" fill="#5350B2" fill-opacity="0.7"/>
<path d="M310.8 248.6L322.5 241.7L334.2 248.6L322.5 255.3L310.8 248.6Z" fill="#5350B2" fill-opacity="0.7"/>
<path opacity="0.53" d="M310.8 248.6L322.5 241.7L334.2 248.6L322.5 255.3L310.8 248.6Z" fill="#5350B2" fill-opacity="0.7"/>
<path d="M301.4 276.901L313.1 270.101V314.701L302.1 320.901L301.4 276.901Z" fill="#5350B2" fill-opacity="0.7"/>
<path d="M301.4 276.901L289.7 270.101L290 313.801L302.1 320.901L301.4 276.901Z" fill="#5350B2" fill-opacity="0.7"/>
<path d="M289.7 270.1L301.4 263.3L313.1 270.1L301.4 276.9L289.7 270.1Z" fill="#5350B2" fill-opacity="0.7"/>
<path d="M301.4 276.901L313.1 270.101V314.701L302.1 320.901L301.4 276.901Z" fill="#5350B2" fill-opacity="0.7"/>
<path opacity="0.19" d="M301.4 276.901L289.7 270.101L290 313.801L302.1 320.901L301.4 276.901Z" fill="#5350B2" fill-opacity="0.7"/>
<path opacity="0.53" d="M289.7 270.1L301.4 263.3L313.1 270.1L301.4 276.9L289.7 270.1Z" fill="#5350B2" fill-opacity="0.7"/>
<path d="M278.6 297.7L290.3 290.9L290.9 327.5L278.6 334.7V297.7Z" fill="#5350B2" fill-opacity="0.7"/>
<path d="M278.6 297.7L266.9 290.9V327.8L278.6 334.7V297.7Z" fill="#5350B2" fill-opacity="0.7"/>
<path opacity="0.19" d="M278.6 297.7L266.9 290.9V327.8L278.6 334.7V297.7Z" fill="#5350B2" fill-opacity="0.7"/>
<path d="M266.9 290.9L278.6 284L290.3 290.9L278.6 297.7L266.9 290.9Z" fill="#5350B2" fill-opacity="0.7"/>
<path opacity="0.53" d="M266.9 290.9L278.6 284L290.3 290.9L278.6 297.7L266.9 290.9Z" fill="#5350B2" fill-opacity="0.7"/>
<path d="M254.6 321.7L266.3 315L266.7 341.3L254.6 348.2V321.7Z" fill="#5350B2" fill-opacity="0.7"/>
<path d="M254.6 321.7L242.9 315V341.4L254.6 348.2V321.7Z" fill="#5350B2" fill-opacity="0.7"/>
<path opacity="0.19" d="M254.6 321.7L242.9 315V341.4L254.6 348.2V321.7Z" fill="#5350B2" fill-opacity="0.7"/>
<path d="M242.9 315.001L254.6 308.101L266.3 315.001L254.6 321.701L242.9 315.001Z" fill="#5350B2" fill-opacity="0.7"/>
<path opacity="0.53" d="M242.9 315.001L254.6 308.101L266.3 315.001L254.6 321.701L242.9 315.001Z" fill="#5350B2" fill-opacity="0.7"/>
<path d="M273.776 101.185L273.778 101.185L273.778 101.185L273.778 101.185L273.78 101.186L273.79 101.188C273.8 101.191 273.815 101.195 273.837 101.201C273.879 101.213 273.943 101.231 274.029 101.258C274.199 101.31 274.451 101.393 274.772 101.513C275.414 101.752 276.328 102.14 277.406 102.728C279.561 103.905 282.366 105.881 284.949 109.077C290.04 115.378 294.336 126.506 290.933 145.818L238.07 115.918C238.19 115.818 238.33 115.703 238.487 115.574C239.11 115.062 240.019 114.335 241.155 113.474C243.429 111.751 246.612 109.494 250.253 107.357C253.896 105.218 257.984 103.207 262.067 101.966C266.155 100.724 270.198 100.266 273.776 101.185Z" fill="#F5F5FD" stroke="#5350B2"/>
<path d="M79.4514 274.43C91.9799 281.657 104.123 288.642 116.142 295.556C143.646 311.378 170.497 326.824 199.816 343.931C217.933 334.64 229.861 323.289 237.573 310.646C245.321 297.944 248.831 283.906 250.052 269.284C251.273 254.656 250.202 239.463 248.802 224.453C248.547 221.721 248.282 218.995 248.017 216.279C246.829 204.089 245.661 192.112 245.6 180.803C245.5 162.904 245.897 144.132 251.423 126.749C253.428 120.433 256.156 113.64 261.139 108.454L261.146 108.447C262.271 107.322 265.001 104.972 267.964 103.161C269.445 102.256 271.007 101.472 272.471 101.049C272.872 100.934 273.273 100.843 273.668 100.786L255.069 91.0438L255.068 91.0431L250.069 88.4438L250.068 88.443L221.668 73.543L221.667 73.5428L186.667 55.1428L186.667 55.1427L173.367 48.1427C172.7 47.7917 172.028 47.4106 171.344 47.0235C170.024 46.2755 168.664 45.5049 167.227 44.8843C165.071 43.9536 162.859 43.4197 160.602 43.8896L79.4514 274.43ZM79.4514 274.43C80.6519 273.799 81.6943 273.146 82.6957 272.519L82.7278 272.499C83.9679 271.722 85.1428 270.989 86.5105 270.354L86.516 270.351C105.869 261.076 118.6 250.684 126.784 239.413C134.971 228.137 138.585 216.015 139.76 203.321C140.934 190.639 139.675 177.373 138.111 163.812C137.907 162.048 137.699 160.279 137.49 158.505C136.089 146.629 134.665 134.549 134.6 122.398C134.5 104.496 134.903 85.8683 140.376 68.6517L140.376 68.6515C142.371 62.3685 145.042 55.7632 149.857 50.7503C152.651 47.9567 156.459 44.7569 160.602 43.8897L79.4514 274.43Z" fill="#F5F5FD" stroke="#5350B2"/>
<path d="M170.1 145.701V163.001L165.6 160.101V143.101C167.1 143.901 168.6 144.801 170.1 145.701Z" fill="#5350B2"/>
<path d="M161 134.6V158L156.5 155.1V132.4L161 134.6Z" fill="#5350B2"/>
<path d="M151.9 122.501V153.201L147.3 150.301V120.601C148.9 121.301 150.4 121.901 151.9 122.501Z" fill="#5350B2"/>
<path d="M205.5 165.8C201.5 161.7 197.3 159.6 193.3 159.6C192.5 159.6 191.8 159.7 191.1 159.8C188 160.6 185.3 162.4 183.5 165C181.7 162.6 179.8 160.2 177.8 158C180.8 154.5 184.8 152.1 189.2 151.1C196.9 149.5 204.9 152.5 211.8 159.5C213.8 161.6 215.7 163.9 217.3 166.4C214.8 167.9 212.3 169.6 209.8 171.2C208.6 169.4 207.1 167.5 205.5 165.8Z" fill="#3F3F40"/>
<path d="M205.4 228.201C209.6 226.901 213.1 223.001 215.3 217.101C217.9 210.101 218.3 201.301 216.4 192.401C215.3 187.101 213.4 182.101 210.8 177.401C213.3 175.801 215.7 174.101 218.3 172.601C221.5 178.201 223.9 184.201 225.2 190.501C227.4 201.001 226.9 211.501 223.7 220.101C220.5 228.701 215.1 234.301 208.3 236.501C207.4 233.801 206.5 231.001 205.4 228.201Z" fill="#9898FA"/>
<path d="M171.9 172.601C173 169.501 174.6 166.701 176.5 164.101C178.6 166.401 180.5 168.801 182.3 171.301C181.5 172.701 180.8 174.201 180.2 175.701C177.6 182.701 177.2 191.501 179.1 200.401C181 209.301 184.9 217.201 190.1 222.501C194.5 227.001 199.2 229.101 203.5 228.601C204.6 231.401 205.5 234.201 206.4 237.101H206.3C204.9 237.401 203.6 237.501 202.2 237.501C195.8 237.501 189.4 234.401 183.7 228.601C177.3 222.101 172.6 212.701 170.4 202.101C168.2 191.501 168.7 181.201 171.9 172.601Z" fill="#5350B2"/>
<path d="M195.617 204.847C198.636 204.511 200.588 199.789 199.977 194.3C199.366 188.81 196.424 184.633 193.405 184.969C190.386 185.305 188.433 190.027 189.044 195.516C189.655 201.005 192.598 205.183 195.617 204.847Z" fill="#5350B2"/>
<path d="M232.4 142.7L223.7 137.6L202.9 125.4L177.7 110.7L155.9 97.9L148.8 93.7C147.7 93 146.6 92.3 145.4 91.7L145.2 91.6C144.8 91.4 144.4 91.6 144.2 91.9C144 92.2 144.1 92.7 144.4 92.9L153.1 98L174 110.2L199.2 125L221 137.7L228.2 141.9C229.3 142.6 230.4 143.3 231.6 143.9L231.8 144C232.2 144.2 232.6 144 232.8 143.6C232.8 143.3 232.7 142.9 232.4 142.7Z" fill="#5350B2"/>
<path d="M236.1 134.201L227.4 129.101L206.6 117.001L181.4 102.201L159.6 89.5005L152.4 85.3005C151.3 84.6005 150.2 83.9005 149 83.3005L148.8 83.2005C148.4 83.0005 148 83.2005 147.8 83.6005C147.7 83.9005 147.8 84.3005 148 84.5005L156.7 89.6005L177.5 101.801L202.7 116.501L224.5 129.201L231.7 133.401C232.8 134.101 233.9 134.801 235.1 135.401L235.3 135.501C235.7 135.701 236.1 135.501 236.3 135.201C236.5 134.901 236.4 134.501 236.1 134.201Z" fill="#5350B2"/>
<path d="M232.4 152L223.7 146.9L202.9 134.7L177.7 119.9L155.9 107.2L148.8 103C147.7 102.3 146.6 101.6 145.4 101C145.3 101 145.3 100.9 145.2 100.9C144.8 100.7 144.4 100.9 144.2 101.2C144 101.5 144.1 102 144.4 102.2L153.1 107.3L174 119.5L199.2 134.2L221 147L228.2 151.2C229.3 151.9 230.4 152.6 231.6 153.2L231.8 153.3C232.2 153.5 232.6 153.3 232.8 152.9C232.8 152.6 232.7 152.2 232.4 152Z" fill="#5350B2"/>
<path d="M232.4 269.4L223.7 264.3L202.9 252.1L177.7 237.3L155.9 224.6L148.8 220.4C147.7 219.7 146.6 219 145.4 218.4C145.3 218.4 145.3 218.3 145.2 218.3C144.8 218.1 144.4 218.3 144.2 218.6C144 218.9 144.1 219.4 144.4 219.6L153.1 224.7L174 236.9L199.2 251.6L221 264.4L228.2 268.6C229.3 269.3 230.4 270 231.6 270.6L231.8 270.7C232.2 270.9 232.6 270.7 232.8 270.3C232.8 270 232.7 269.6 232.4 269.4Z" fill="#5350B2"/>
<path d="M231.8 278.801L223.1 273.701L202.3 261.501L177 246.801L155.2 234.001L148 229.801C146.9 229.101 145.8 228.401 144.6 227.801L144.4 227.701C144 227.501 143.6 227.701 143.4 228.101C143.3 228.401 143.4 228.801 143.6 229.001L152.3 234.101L173.1 246.301L198.3 261.101L220.1 273.901L227.3 278.101C228.4 278.801 229.5 279.501 230.7 280.101L230.9 280.201C231.3 280.401 231.7 280.201 231.9 279.901C232.2 279.501 232.1 279.101 231.8 278.801Z" fill="#5350B2"/>
<path d="M230.1 287.9L221.4 282.8L200.5 270.6L175.3 255.8L153.5 243.1L146.3 238.9C145.2 238.2 144.1 237.5 142.9 236.9L142.7 236.8C142.3 236.6 141.9 236.7 141.7 237.1C141.5 237.5 141.6 237.9 142 238.1L150.7 243.2L171.5 255.4L196.7 270.1L218.5 282.9L225.7 287.1C226.8 287.7 227.9 288.5 229.1 289.1L229.3 289.2C229.7 289.4 230.1 289.3 230.3 288.9C230.5 288.5 230.5 288.2 230.1 287.9Z" fill="#5350B2"/>
<path d="M159.8 255.7L173.4 304.6C173.4 304.6 172.2 317.8 155 312.3L143.3 260.7C143.2 260.8 145.8 249.3 159.8 255.7Z" fill="#9898FA"/>
<path d="M139.4 232.7L148 261.7C148 261.7 155.3 265.5 157.6 258.3L150.6 230.1L139.4 232.7Z" fill="#3F3F40"/>
<path d="M126.1 226C117.9 219.6 111.2 209.7 107.2 198.1C103.2 186.5 102.5 174.6 105 164.5C107.7 153.6 113.9 146 122.5 143.1C139.6 137.2 159.8 152.2 168.3 177.2C176.8 202.2 170.1 226.3 153 232.2C148.6 233.7 143.9 233.9 139.4 232.7C134.5 231.5 130 229.2 126.1 226ZM125.7 152.4C120.4 154.2 116.5 159.4 114.6 166.9C112.5 175.2 113.2 185.1 116.6 194.9C120 204.7 125.5 213 132.2 218.2C138.3 223 144.6 224.6 149.9 222.8C161.4 218.8 165.6 199.4 159.1 180.3C154 165.5 143.7 154.4 133.9 152.1C131.2 151.4 128.3 151.5 125.7 152.4Z" fill="#3F3F40"/>
<path d="M136.3 156.6C133.7 154.7 128 157.8 126.1 159.5C110.9 173.7 118.2 200.3 131.4 213.9C136.3 219 148 225.9 152.2 223C152.2 223 133.2 235.9 119.6 221.7C106 207.5 102.7 180.1 102.7 180.1L103.5 165.6L108.5 155.9L113.5 150.5L126 149.1L136.3 156.6Z" fill="#3F3F40"/>
<path d="M121.4 227.3C113.2 220.9 106.5 210.9 102.5 199.4C98.5 187.9 97.8 175.9 100.3 165.8C103 154.9 109.2 147.3 117.8 144.4C134.9 138.5 155 153.5 163.6 178.5C172.2 203.5 165.4 227.6 148.3 233.5C143.9 235 139.2 235.2 134.7 234C129.9 232.8 125.3 230.5 121.4 227.3ZM121.1 153.7C115.8 155.5 111.9 160.7 110 168.2C107.9 176.5 108.6 186.4 112 196.2C115.4 206 120.9 214.3 127.6 219.5C133.7 224.3 140 225.9 145.3 224.1C156.8 220.1 161 200.7 154.5 181.6C149.4 166.8 139.1 155.7 129.3 153.4C126.5 152.8 123.7 152.9 121.1 153.7Z" fill="#5350B2"/>
<path d="M113.5 230.7C113.8 230 114.1 229.3 114.5 228.7C114.5 228.7 114.5 228.8 114.6 228.8C114.6 228.9 114.8 229 114.9 229C115 229 115 228.9 115.1 228.9L115.8 227.8C115.8 227.9 115.8 228.1 115.8 228.2C115.9 228.8 116.5 229.2 117 229.1C117.6 229.1 118.1 228.5 118 227.9C118 227.8 118 227.8 118 227.7C118.1 227.6 118.2 227.4 118.3 227.3C118.3 227.4 118.3 227.5 118.3 227.6C118.5 228.1 119.1 228.4 119.6 228.2C119.7 228.2 119.8 228.1 119.9 228C120 227.9 120.1 227.8 120.3 227.6C120.5 227.7 120.7 227.7 120.9 227.6C121.9 227.3 122.8 226.9 123.7 226.5C123.5 226.4 123.4 226.2 123.5 225.9C123.5 225.9 123.5 225.8 123.6 225.8C124.6 224.8 125.9 224.3 127 223.4L127.1 223.3L127.2 223.2C127.5 222.3 127.4 221.3 127 220.4C127.6 219.7 127.8 218.8 127.6 217.8C127.5 217.8 127.4 217.8 127.3 217.7C127.1 217.5 127 217.4 126.9 217.2C126.7 216.9 126.5 216.6 126.4 216.3C126.3 216.1 126.4 216 126.5 215.9C126.1 215.3 125.5 214.7 125.1 214.2C126.2 212.3 126.8 210.1 126.6 207.9C126.5 207.4 126 207 125.5 207C125.2 207 125 207.2 124.8 207.4C124.4 208.1 124 208.8 123.6 209.6C123.5 209.7 123.4 209.8 123.3 209.9C121.4 213.8 119.3 217.6 117 221.2C116.6 221.8 111.8 228.4 112.4 228.6C112.6 229 108.7 238 113.5 230.7Z" fill="#FCBF81"/>
<path d="M114 228.6C115 227.8 115.9 226.8 116.6 225.7C117.1 224.7 118.3 224.4 119.3 224.9H119.4C119.5 224.4 119.5 223.8 119.5 223.3C119.5 220.6 123.8 220.5 123.7 223.3C123.8 225.4 123.2 227.5 122.1 229.3C120.8 230.9 119.3 232.3 117.5 233.4C116.5 234 115.1 233.6 114.5 232.6C114.4 232.3 114.3 232.1 114.2 231.8C114.1 231.8 114.1 231.7 114 231.7C113.2 230.7 113.2 229.4 114 228.6Z" fill="#FCBF81"/>
<path d="M120.8 230.2C122.6 229 123.9 227.3 124.4 225.2C124.5 225.3 124.6 225.4 124.7 225.3L126.4 224.2C126.8 224 127.1 223.7 127.3 223.4C127.9 222.6 127.4 221.7 127.1 220.9L127 220.8C127.1 220.7 127.2 220.5 127.2 220.4C127.6 219.8 127.8 219.1 127.8 218.3C127.7 217.6 127 217.1 126.7 216.4C126.8 215.6 126.4 214.9 125.7 214.6C124.8 214.2 124.3 214.9 123.8 215.5C122.8 216.9 121.8 218.4 120.9 219.9C120.7 220.2 121.2 220.5 121.4 220.2C121.9 219.4 122.4 218.6 123 217.8C123.4 216.9 124 216.1 124.7 215.4C126.6 214.3 126.2 216.9 125.9 217.6C125.7 218 125.5 218.4 125.3 218.7L123.9 221.2C123.9 221.2 123.9 221.2 123.9 221.3C123.9 221.4 123.9 221.4 123.9 221.5C124.8 224.7 123.4 228 120.7 229.8C120.2 229.9 120.5 230.4 120.8 230.2ZM124.6 221.6C124.5 221.5 124.4 221.5 124.3 221.6C124.3 221.5 124.3 221.5 124.3 221.4C125.2 220.1 126 218.6 126.6 217.1C126.7 217.3 126.9 217.4 127 217.6C127.4 218.1 127.4 218.8 127.1 219.4C126.8 220.2 125.8 222.2 124.6 221.6ZM124.5 224.8C124.7 223.9 124.7 223 124.5 222.1C125.4 222.5 126.2 222 126.7 221.2C126.9 221.5 127 221.9 127.1 222.2C127.2 222.7 127 223.2 126.5 223.4C125.9 223.9 125.1 224.3 124.5 224.8Z" fill="#3F3F40"/>
<path d="M90.6001 238.7C90.6001 238.7 102.9 239.3 106.2 236.3C109.5 233.3 114.1 224 114.1 224C114.1 224 122.6 229.5 123 232.6C123.4 235.7 114.1 251 110 252" fill="#5350B2"/>
<path d="M71.9 390.9C71.9 390.9 82.3 386.3 84.8 386.1C87.3 385.9 91.5 386.8 87.9 391.4C87.9 391.4 76.9 398.6 75.5 398.8C74.1 399 70.5 397.9 70.5 398.3C70.5 398.7 70.1 401.4 70.1 401.4C70.1 401.4 60.9 404.9 60.5 398.8C60.4 398 61.8 386.6 61.8 386.6" fill="#5350B2"/>
<path d="M59.9001 364C61.7001 352.2 65.0001 340.8 66.4001 328.8C67.3001 321.3 67.9001 313.7 68.8001 306.2C69.7001 298.7 72.5001 291.4 74.3001 284C74.4001 283.6 74.2001 283.3 73.9001 283.1L74.1001 282.3C75.0001 281.4 76.0001 280.6 76.9001 279.8L89.7001 288.4C89.7001 288.4 89.6001 296.3 89.2001 307.6C87.7001 314.2 86.6001 320.2 84.9001 326.5C85.3001 326.9 85.4001 327.5 85.3001 328C81.1001 347.8 78.1001 367.8 76.2001 388C76.1001 388.7 75.7001 389.3 75.1001 389.5L74.7001 392.6C63.6001 396.9 61.1001 389.4 61.1001 389.4C61.1001 389.4 60.6001 383 60.0001 374.1C59.9001 370.8 59.8001 367.4 59.9001 364Z" fill="#3F3F40"/>
<path d="M154.3 243.7C153.6 244.1 152.9 244.5 152.1 245.1C153.2 243.7 154.2 242.2 155 240.6C155.8 239.2 153.8 238.1 152.8 239.1C150 242.2 146.9 245.1 143.6 247.7C143.4 247.8 143.3 248 143.2 248.1H141.2C140.6 248.1 140 248.1 139.5 248.1L139 248C138.6 247.9 138.2 248 137.9 248.4C137.6 248.5 137.4 248.6 137.1 248.8C137 248.8 137 248.9 136.9 249C136.3 249.1 135.6 249.1 134.9 249.2C134.1 249.3 133.6 250 133.7 250.8C133.7 250.9 133.8 251.1 133.8 251.2L133.5 251C132 250.1 130.8 252.5 132.3 253.4C135.4 255.3 139 256.3 142.7 256.3C143 256.6 143.5 256.6 143.9 256.4L144.5 256.2C147.6 256 150.7 255.4 153.6 254.3C154.4 254 155.2 253.8 156 253.7C155.6 250.5 155 247.1 154.3 243.7Z" fill="#FCBF81"/>
<path d="M94.7001 408.1L100.9 410.3C101.3 411.4 102.2 412.3 103.4 412.6C103.6 412.9 103.9 413 104.3 413.1C106.9 413.5 109.2 412.7 111.7 411.9C114.7 411 126.3 406.5 123 414.9C120.9 416.4 118.5 417.7 116.4 419C115.2 419.7 114 420.5 112.7 421.2C112 421.7 111.3 422 110.5 422.2C108.8 422.5 104.8 421.2 104.7 421.6C104.6 422 104.2 425.2 104.2 425.2C104.2 425.2 93.6001 429.2 93.2001 422.2C93.1001 421.2 94.7001 408.1 94.7001 408.1Z" fill="#5350B2"/>
<path d="M86.0001 344.6C84.7001 323.7 84.0001 302.8 79.6001 282.3C79.4001 277 76.0001 280.4 76.2001 278.3C78.0001 261.1 103 281.5 103 281.5C104 282.3 104.1 287.6 104.3 288.8C105.4 295.4 106.4 302 107.2 308.6C111.3 342.1 109.8 375.4 108.1 409C102.8 414.4 99.3001 416 90.8001 412.5C89.1001 390.5 87.5001 368.5 86.1001 346.5C86.0001 346 86.0001 345.3 86.0001 344.6Z" fill="#3F3F40"/>
<path d="M99.3 241C99.1 239.9 96.3 239.2 95.4 238.8C93.5 237.7 94.6 235.9 92.7 234.8C90 233.2 87.1 231.8 84.1 230.6H84C79.3 230.5 71.3 230.3 70.8 236.7C70.1 246.5 70.9 256.2 71.7 265.9C72 269.8 72.3 273.7 72.7 277.5C72.8 278.9 73 290.1 73.8 290.5C83.2 294.4 95.2 293 104.4 289.4C104.6 281.4 102.7 256.9 99.3 241Z" fill="#5350B2"/>
<path d="M90.9002 250.799C91.5002 257.499 96.1002 263.099 102.6 264.799C102.6 265.399 102.8 269.399 102.9 269.999C95.4002 268.199 89.9002 258.799 89.1002 250.799C88.9002 249.599 90.8002 249.599 90.9002 250.799Z" fill="#3F3F40"/>
<path d="M86.3 210.8C86.9 211 92.2 223 90.1 230.4C88 237.8 75.6 230.2 72.4 224.6C69.2 219 74.5 207.8 86.3 210.8Z" fill="#FCBF81"/>
<path d="M86.1001 212.5C86.1001 212.5 86.1001 216.5 82.6001 217.8C79.1001 219.1 76.2001 220 76.4001 221.6C76.6001 223.2 82.7001 221.4 82.7001 225.1C82.7001 227.6 82.4001 230.1 81.7001 232.5C81.3001 234.3 70.8001 228.8 67.4001 219.3C64.0001 209.8 72.6001 207.3 73.0001 207.3C73.4001 207.3 74.2001 204.7 78.4001 203.7C82.6001 202.7 83.8001 204.4 83.8001 204.4C83.8001 204.4 86.6001 202.4 90.0001 205.1C93.9001 208.2 92.9001 213.9 88.5001 216.2L86.1001 212.5Z" fill="#3F3F40"/>
<path d="M90.9001 233.6C90.9001 233.6 112.5 246 120.2 246C125.8 246 136.9 244.2 142.6 243.2C147.9 247.7 148.3 255.7 145 261.7C135.6 263.2 107.7 267.2 98.9001 262.9C88.3001 257.6 76.7001 250.6 76.7001 250.6C76.7001 250.6 66.2001 240.3 90.9001 233.6Z" fill="#5350B2"/>
<path d="M152.1 245.099C152.1 245.099 155.3 242.499 156.2 242.999C157.1 243.499 159 248.099 158.7 250.699C158.4 253.299 157.1 255.599 150.4 255.599" fill="#FCBF81"/>
<path d="M94.6773 493.1L89.4573 507H86.8173L81.5773 493.1H84.0173L88.1373 504.66L92.2773 493.1H94.6773ZM97.744 494.52C97.3307 494.52 96.984 494.38 96.704 494.1C96.424 493.82 96.284 493.473 96.284 493.06C96.284 492.647 96.424 492.3 96.704 492.02C96.984 491.74 97.3307 491.6 97.744 491.6C98.144 491.6 98.484 491.74 98.764 492.02C99.044 492.3 99.184 492.647 99.184 493.06C99.184 493.473 99.044 493.82 98.764 494.1C98.484 494.38 98.144 494.52 97.744 494.52ZM98.864 495.98V507H96.584V495.98H98.864ZM105.857 507.18C104.991 507.18 104.211 507.027 103.517 506.72C102.837 506.4 102.297 505.973 101.897 505.44C101.497 504.893 101.284 504.287 101.257 503.62H103.617C103.657 504.087 103.877 504.48 104.277 504.8C104.691 505.107 105.204 505.26 105.817 505.26C106.457 505.26 106.951 505.14 107.297 504.9C107.657 504.647 107.837 504.327 107.837 503.94C107.837 503.527 107.637 503.22 107.237 503.02C106.851 502.82 106.231 502.6 105.377 502.36C104.551 502.133 103.877 501.913 103.357 501.7C102.837 501.487 102.384 501.16 101.997 500.72C101.624 500.28 101.437 499.7 101.437 498.98C101.437 498.393 101.611 497.86 101.957 497.38C102.304 496.887 102.797 496.5 103.437 496.22C104.091 495.94 104.837 495.8 105.677 495.8C106.931 495.8 107.937 496.12 108.697 496.76C109.471 497.387 109.884 498.247 109.937 499.34H107.657C107.617 498.847 107.417 498.453 107.057 498.16C106.697 497.867 106.211 497.72 105.597 497.72C104.997 497.72 104.537 497.833 104.217 498.06C103.897 498.287 103.737 498.587 103.737 498.96C103.737 499.253 103.844 499.5 104.057 499.7C104.271 499.9 104.531 500.06 104.837 500.18C105.144 500.287 105.597 500.427 106.197 500.6C106.997 500.813 107.651 501.033 108.157 501.26C108.677 501.473 109.124 501.793 109.497 502.22C109.871 502.647 110.064 503.213 110.077 503.92C110.077 504.547 109.904 505.107 109.557 505.6C109.211 506.093 108.717 506.48 108.077 506.76C107.451 507.04 106.711 507.18 105.857 507.18ZM122.521 495.98V507H120.241V505.7C119.881 506.153 119.408 506.513 118.821 506.78C118.248 507.033 117.634 507.16 116.981 507.16C116.114 507.16 115.334 506.98 114.641 506.62C113.961 506.26 113.421 505.727 113.021 505.02C112.634 504.313 112.441 503.46 112.441 502.46V495.98H114.701V502.12C114.701 503.107 114.948 503.867 115.441 504.4C115.934 504.92 116.608 505.18 117.461 505.18C118.314 505.18 118.988 504.92 119.481 504.4C119.988 503.867 120.241 503.107 120.241 502.12V495.98H122.521ZM124.769 501.44C124.769 500.333 124.996 499.353 125.449 498.5C125.916 497.647 126.543 496.987 127.329 496.52C128.129 496.04 129.009 495.8 129.969 495.8C130.836 495.8 131.589 495.973 132.229 496.32C132.883 496.653 133.403 497.073 133.789 497.58V495.98H136.089V507H133.789V505.36C133.403 505.88 132.876 506.313 132.209 506.66C131.543 507.007 130.783 507.18 129.929 507.18C128.983 507.18 128.116 506.94 127.329 506.46C126.543 505.967 125.916 505.287 125.449 504.42C124.996 503.54 124.769 502.547 124.769 501.44ZM133.789 501.48C133.789 500.72 133.629 500.06 133.309 499.5C133.003 498.94 132.596 498.513 132.089 498.22C131.583 497.927 131.036 497.78 130.449 497.78C129.863 497.78 129.316 497.927 128.809 498.22C128.303 498.5 127.889 498.92 127.569 499.48C127.263 500.027 127.109 500.68 127.109 501.44C127.109 502.2 127.263 502.867 127.569 503.44C127.889 504.013 128.303 504.453 128.809 504.76C129.329 505.053 129.876 505.2 130.449 505.2C131.036 505.2 131.583 505.053 132.089 504.76C132.596 504.467 133.003 504.04 133.309 503.48C133.629 502.907 133.789 502.24 133.789 501.48ZM141.364 492.2V507H139.084V492.2H141.364ZM145.517 494.52C145.104 494.52 144.757 494.38 144.477 494.1C144.197 493.82 144.057 493.473 144.057 493.06C144.057 492.647 144.197 492.3 144.477 492.02C144.757 491.74 145.104 491.6 145.517 491.6C145.917 491.6 146.257 491.74 146.537 492.02C146.817 492.3 146.957 492.647 146.957 493.06C146.957 493.473 146.817 493.82 146.537 494.1C146.257 494.38 145.917 494.52 145.517 494.52ZM146.637 495.98V507H144.357V495.98H146.637ZM151.651 505.14H156.651V507H149.011V505.14L154.031 497.84H149.011V495.98H156.651V497.84L151.651 505.14ZM169.145 501.22C169.145 501.633 169.118 502.007 169.065 502.34H160.645C160.712 503.22 161.038 503.927 161.625 504.46C162.212 504.993 162.932 505.26 163.785 505.26C165.012 505.26 165.878 504.747 166.385 503.72H168.845C168.512 504.733 167.905 505.567 167.025 506.22C166.158 506.86 165.078 507.18 163.785 507.18C162.732 507.18 161.785 506.947 160.945 506.48C160.118 506 159.465 505.333 158.985 504.48C158.518 503.613 158.285 502.613 158.285 501.48C158.285 500.347 158.512 499.353 158.965 498.5C159.432 497.633 160.078 496.967 160.905 496.5C161.745 496.033 162.705 495.8 163.785 495.8C164.825 495.8 165.752 496.027 166.565 496.48C167.378 496.933 168.012 497.573 168.465 498.4C168.918 499.213 169.145 500.153 169.145 501.22ZM166.765 500.5C166.752 499.66 166.452 498.987 165.865 498.48C165.278 497.973 164.552 497.72 163.685 497.72C162.898 497.72 162.225 497.973 161.665 498.48C161.105 498.973 160.772 499.647 160.665 500.5H166.765ZM186.504 495.98L179.744 512.18H177.384L179.624 506.82L175.284 495.98H177.824L180.924 504.38L184.144 495.98H186.504ZM193.005 507.18C191.965 507.18 191.025 506.947 190.185 506.48C189.345 506 188.685 505.333 188.205 504.48C187.725 503.613 187.485 502.613 187.485 501.48C187.485 500.36 187.731 499.367 188.225 498.5C188.718 497.633 189.391 496.967 190.245 496.5C191.098 496.033 192.051 495.8 193.105 495.8C194.158 495.8 195.111 496.033 195.965 496.5C196.818 496.967 197.491 497.633 197.985 498.5C198.478 499.367 198.725 500.36 198.725 501.48C198.725 502.6 198.471 503.593 197.965 504.46C197.458 505.327 196.765 506 195.885 506.48C195.018 506.947 194.058 507.18 193.005 507.18ZM193.005 505.2C193.591 505.2 194.138 505.06 194.645 504.78C195.165 504.5 195.585 504.08 195.905 503.52C196.225 502.96 196.385 502.28 196.385 501.48C196.385 500.68 196.231 500.007 195.925 499.46C195.618 498.9 195.211 498.48 194.705 498.2C194.198 497.92 193.651 497.78 193.065 497.78C192.478 497.78 191.931 497.92 191.425 498.2C190.931 498.48 190.538 498.9 190.245 499.46C189.951 500.007 189.805 500.68 189.805 501.48C189.805 502.667 190.105 503.587 190.705 504.24C191.318 504.88 192.085 505.2 193.005 505.2ZM210.959 495.98V507H208.679V505.7C208.319 506.153 207.845 506.513 207.259 506.78C206.685 507.033 206.072 507.16 205.419 507.16C204.552 507.16 203.772 506.98 203.079 506.62C202.399 506.26 201.859 505.727 201.459 505.02C201.072 504.313 200.879 503.46 200.879 502.46V495.98H203.139V502.12C203.139 503.107 203.385 503.867 203.879 504.4C204.372 504.92 205.045 505.18 205.899 505.18C206.752 505.18 207.425 504.92 207.919 504.4C208.425 503.867 208.679 503.107 208.679 502.12V495.98H210.959ZM216.247 497.58C216.58 497.02 217.02 496.587 217.567 496.28C218.127 495.96 218.787 495.8 219.547 495.8V498.16H218.967C218.073 498.16 217.393 498.387 216.927 498.84C216.473 499.293 216.247 500.08 216.247 501.2V507H213.967V495.98H216.247V497.58ZM231.458 497.84H229.418V507H227.118V497.84H225.818V495.98H227.118V495.2C227.118 493.933 227.451 493.013 228.118 492.44C228.798 491.853 229.858 491.56 231.298 491.56V493.46C230.605 493.46 230.118 493.593 229.838 493.86C229.558 494.113 229.418 494.56 229.418 495.2V495.98H231.458V497.84ZM234.639 494.52C234.225 494.52 233.879 494.38 233.599 494.1C233.319 493.82 233.179 493.473 233.179 493.06C233.179 492.647 233.319 492.3 233.599 492.02C233.879 491.74 234.225 491.6 234.639 491.6C235.039 491.6 235.379 491.74 235.659 492.02C235.939 492.3 236.079 492.647 236.079 493.06C236.079 493.473 235.939 493.82 235.659 494.1C235.379 494.38 235.039 494.52 234.639 494.52ZM235.759 495.98V507H233.479V495.98H235.759ZM244.312 495.8C245.179 495.8 245.952 495.98 246.632 496.34C247.325 496.7 247.865 497.233 248.252 497.94C248.639 498.647 248.832 499.5 248.832 500.5V507H246.572V500.84C246.572 499.853 246.325 499.1 245.832 498.58C245.339 498.047 244.665 497.78 243.812 497.78C242.959 497.78 242.279 498.047 241.772 498.58C241.279 499.1 241.032 499.853 241.032 500.84V507H238.752V495.98H241.032V497.24C241.405 496.787 241.879 496.433 242.452 496.18C243.039 495.927 243.659 495.8 244.312 495.8ZM250.98 501.44C250.98 500.333 251.207 499.353 251.66 498.5C252.127 497.647 252.754 496.987 253.54 496.52C254.34 496.04 255.22 495.8 256.18 495.8C257.047 495.8 257.8 495.973 258.44 496.32C259.094 496.653 259.614 497.073 260 497.58V495.98H262.3V507H260V505.36C259.614 505.88 259.087 506.313 258.42 506.66C257.754 507.007 256.994 507.18 256.14 507.18C255.194 507.18 254.327 506.94 253.54 506.46C252.754 505.967 252.127 505.287 251.66 504.42C251.207 503.54 250.98 502.547 250.98 501.44ZM260 501.48C260 500.72 259.84 500.06 259.52 499.5C259.214 498.94 258.807 498.513 258.3 498.22C257.794 497.927 257.247 497.78 256.66 497.78C256.074 497.78 255.527 497.927 255.02 498.22C254.514 498.5 254.1 498.92 253.78 499.48C253.474 500.027 253.32 500.68 253.32 501.44C253.32 502.2 253.474 502.867 253.78 503.44C254.1 504.013 254.514 504.453 255.02 504.76C255.54 505.053 256.087 505.2 256.66 505.2C257.247 505.2 257.794 505.053 258.3 504.76C258.807 504.467 259.214 504.04 259.52 503.48C259.84 502.907 260 502.24 260 501.48ZM270.855 495.8C271.722 495.8 272.495 495.98 273.175 496.34C273.868 496.7 274.408 497.233 274.795 497.94C275.182 498.647 275.375 499.5 275.375 500.5V507H273.115V500.84C273.115 499.853 272.868 499.1 272.375 498.58C271.882 498.047 271.208 497.78 270.355 497.78C269.502 497.78 268.822 498.047 268.315 498.58C267.822 499.1 267.575 499.853 267.575 500.84V507H265.295V495.98H267.575V497.24C267.948 496.787 268.422 496.433 268.995 496.18C269.582 495.927 270.202 495.8 270.855 495.8ZM277.523 501.48C277.523 500.347 277.75 499.353 278.203 498.5C278.67 497.633 279.31 496.967 280.123 496.5C280.937 496.033 281.87 495.8 282.923 495.8C284.257 495.8 285.357 496.12 286.223 496.76C287.103 497.387 287.697 498.287 288.003 499.46H285.543C285.343 498.913 285.023 498.487 284.583 498.18C284.143 497.873 283.59 497.72 282.923 497.72C281.99 497.72 281.243 498.053 280.683 498.72C280.137 499.373 279.863 500.293 279.863 501.48C279.863 502.667 280.137 503.593 280.683 504.26C281.243 504.927 281.99 505.26 282.923 505.26C284.243 505.26 285.117 504.68 285.543 503.52H288.003C287.683 504.64 287.083 505.533 286.203 506.2C285.323 506.853 284.23 507.18 282.923 507.18C281.87 507.18 280.937 506.947 280.123 506.48C279.31 506 278.67 505.333 278.203 504.48C277.75 503.613 277.523 502.613 277.523 501.48ZM300.375 501.22C300.375 501.633 300.349 502.007 300.295 502.34H291.875C291.942 503.22 292.269 503.927 292.855 504.46C293.442 504.993 294.162 505.26 295.015 505.26C296.242 505.26 297.109 504.747 297.615 503.72H300.075C299.742 504.733 299.135 505.567 298.255 506.22C297.389 506.86 296.309 507.18 295.015 507.18C293.962 507.18 293.015 506.947 292.175 506.48C291.349 506 290.695 505.333 290.215 504.48C289.749 503.613 289.515 502.613 289.515 501.48C289.515 500.347 289.742 499.353 290.195 498.5C290.662 497.633 291.309 496.967 292.135 496.5C292.975 496.033 293.935 495.8 295.015 495.8C296.055 495.8 296.982 496.027 297.795 496.48C298.609 496.933 299.242 497.573 299.695 498.4C300.149 499.213 300.375 500.153 300.375 501.22ZM297.995 500.5C297.982 499.66 297.682 498.987 297.095 498.48C296.509 497.973 295.782 497.72 294.915 497.72C294.129 497.72 293.455 497.973 292.895 498.48C292.335 498.973 292.002 499.647 291.895 500.5H297.995ZM306.619 507.18C305.752 507.18 304.972 507.027 304.279 506.72C303.599 506.4 303.059 505.973 302.659 505.44C302.259 504.893 302.046 504.287 302.019 503.62H304.379C304.419 504.087 304.639 504.48 305.039 504.8C305.452 505.107 305.966 505.26 306.579 505.26C307.219 505.26 307.712 505.14 308.059 504.9C308.419 504.647 308.599 504.327 308.599 503.94C308.599 503.527 308.399 503.22 307.999 503.02C307.612 502.82 306.992 502.6 306.139 502.36C305.312 502.133 304.639 501.913 304.119 501.7C303.599 501.487 303.146 501.16 302.759 500.72C302.386 500.28 302.199 499.7 302.199 498.98C302.199 498.393 302.372 497.86 302.719 497.38C303.066 496.887 303.559 496.5 304.199 496.22C304.852 495.94 305.599 495.8 306.439 495.8C307.692 495.8 308.699 496.12 309.459 496.76C310.232 497.387 310.646 498.247 310.699 499.34H308.419C308.379 498.847 308.179 498.453 307.819 498.16C307.459 497.867 306.972 497.72 306.359 497.72C305.759 497.72 305.299 497.833 304.979 498.06C304.659 498.287 304.499 498.587 304.499 498.96C304.499 499.253 304.606 499.5 304.819 499.7C305.032 499.9 305.292 500.06 305.599 500.18C305.906 500.287 306.359 500.427 306.959 500.6C307.759 500.813 308.412 501.033 308.919 501.26C309.439 501.473 309.886 501.793 310.259 502.22C310.632 502.647 310.826 503.213 310.839 503.92C310.839 504.547 310.666 505.107 310.319 505.6C309.972 506.093 309.479 506.48 308.839 506.76C308.212 507.04 307.472 507.18 306.619 507.18Z" fill="#5350B2"/>
</svg>
