<svg width="300" height="384" viewBox="0 0 300 384" fill="none" xmlns="http://www.w3.org/2000/svg">
<path d="M92.9451 112.2V6.7C92.9451 3 95.9451 0 99.6451 0C100.845 0 102.045 0.300002 103.045 0.900002L236.645 79.6C238.745 80.8 239.945 83 239.945 85.4V192.3C239.945 196 236.945 199 233.245 199C232.045 199 230.845 198.7 229.745 198L96.2451 118C94.1451 116.8 92.9451 114.6 92.9451 112.2Z" fill="#5350B2"/>
<path d="M143.266 119.57C152.495 117.563 157.331 103.773 154.069 88.7703C150.806 73.7663 140.68 63.2303 131.451 65.2373C122.222 67.2443 117.386 81.0343 120.648 96.0373C123.911 111.041 134.037 121.577 143.266 119.57Z" fill="#F5F5FD"/>
<path d="M137.345 94.2L125.045 69.1001C125.045 69.1001 133.645 57.9 146.045 72L137.345 94.2Z" fill="#F5F5FD"/>
<path d="M137.345 94.2L154.945 100C154.945 100 156.945 84.4 146.145 72L137.345 94.2Z" fill="#9898FA"/>
<path d="M155.945 144.4L166.145 138.1L174.445 148.4L189.045 141.5L203.245 158.3L222.145 154.1V182.9L155.945 144.4Z" fill="#F5F5FD"/>
<path d="M112.345 23.9004L142.745 41.8004L147.045 44.3004C147.645 44.7004 148.445 44.4004 148.745 43.8004C149.145 43.2004 148.845 42.4004 148.245 42.1004L117.845 24.2004L113.545 21.7004C112.945 21.4004 112.145 21.6004 111.845 22.3004C111.645 22.9004 111.845 23.6004 112.345 23.9004Z" fill="#F5F5FD"/>
<path d="M111.645 31.0999L142.045 48.9999L146.345 51.4999C146.945 51.7999 147.745 51.5999 148.045 50.8999C148.345 50.2999 148.145 49.6999 147.645 49.2999L117.245 31.3999L112.945 28.8999C112.345 28.4999 111.545 28.7999 111.245 29.3999C110.845 29.8999 111.045 30.6999 111.645 31.0999Z" fill="#F5F5FD"/>
<path d="M111.645 38.2998L142.045 56.1998L146.345 58.6998C146.945 59.0998 147.745 58.7998 148.045 58.1998C148.445 57.5998 148.145 56.7998 147.545 56.4998L117.145 38.5998L112.845 36.0998C112.245 35.7998 111.445 35.9998 111.145 36.6998C110.945 37.1998 111.045 37.8998 111.645 38.2998Z" fill="#F5F5FD"/>
<path d="M285.791 82.431H285.792C289.043 84.344 291.045 87.782 291.045 91.5V174.3C291.045 176.531 289.262 178.4 286.945 178.4C286.229 178.4 285.516 178.221 284.897 177.868L284.893 177.866L180.302 115.171L180.296 115.168C177.354 113.459 175.445 110.126 175.445 106.6V24.6C175.445 22.362 177.235 20.5 179.445 20.5C180.162 20.5 180.875 20.679 181.494 21.033L181.497 21.034L285.791 82.431Z" fill="#F5F5FD" stroke="#5350B2"/>
<path d="M266.796 143.205C276.091 140.766 280.888 128.352 277.51 115.477C274.132 102.602 263.858 94.142 254.562 96.581C245.267 99.02 240.47 111.434 243.848 124.309C247.226 137.184 257.5 145.644 266.796 143.205Z" fill="#5350B2"/>
<path d="M266.645 128.7C266.645 129.8 266.345 130.9 265.845 131.9C265.345 132.8 264.545 133.4 263.645 133.6C262.645 133.8 261.645 133.7 260.745 133.4L260.645 136.9C260.645 137.9 259.945 138.1 259.445 137.9C258.845 137.5 258.445 136.9 258.545 136.1L258.645 132.5C257.145 131.6 255.845 130.4 254.945 128.9C253.845 127.2 253.245 125.2 253.245 123.1L257.045 124.6C257.045 125.5 257.245 126.3 257.645 127.1C257.945 127.6 258.245 128.1 258.745 128.5L258.945 121.7C257.945 120.9 256.945 120 256.045 119.1C255.245 118.2 254.645 117.3 254.145 116.2C253.645 114.9 253.345 113.5 253.445 112.1C253.445 110.9 253.745 109.8 254.345 108.8C254.845 108 255.745 107.5 256.645 107.3C257.545 107.2 258.445 107.2 259.345 107.5L259.445 103.1C259.445 102.1 260.145 101.9 260.645 102.2C261.245 102.6 261.645 103.2 261.545 104L261.445 108.5C262.945 109.3 264.145 110.5 264.945 111.9C265.945 113.5 266.545 115.4 266.545 117.3L262.645 115.8C262.545 115 262.345 114.3 262.045 113.6C261.845 113.2 261.545 112.8 261.245 112.5L261.045 119.1C262.045 119.9 263.045 120.8 263.945 121.7C264.745 122.6 265.345 123.6 265.845 124.6C266.445 125.9 266.645 127.3 266.645 128.7ZM262.045 129.3C262.545 128.8 262.845 128 262.745 127.3C262.745 126.5 262.545 125.7 262.145 125C261.845 124.5 261.445 124 260.945 123.6L260.745 129.6C261.245 129.6 261.645 129.5 262.045 129.3ZM257.845 115.5C258.145 116.1 258.545 116.6 259.045 117L259.245 111.1C258.845 111 258.345 111.1 258.045 111.3C257.545 111.8 257.245 112.4 257.345 113.1C257.245 114 257.445 114.8 257.845 115.5Z" fill="#5350B2"/>
<path d="M194.345 48.5002V106.6C194.345 111.5 201.845 111.5 201.845 106.6V48.5002C201.845 43.6002 194.345 43.6002 194.345 48.5002Z" fill="#5350B2"/>
<path d="M206.145 66.6996V113.7C206.145 118.6 213.645 118.6 213.645 113.7V66.6996C213.645 61.8996 206.145 61.8996 206.145 66.6996Z" fill="#5350B2"/>
<path d="M218.345 80.0002V121.4C218.345 126.3 225.845 126.3 225.845 121.4V80.0002C225.845 75.1002 218.345 75.1002 218.345 80.0002Z" fill="#5350B2"/>
<path d="M194.345 58.4004V106.6C194.345 111.5 201.845 111.5 201.845 106.6V63.6004C199.345 61.9004 196.745 60.2004 194.345 58.4004Z" fill="#9898FA"/>
<path d="M206.145 74.4004V113.8C206.145 118.7 213.645 118.7 213.645 113.8V80.2004C211.045 78.3004 208.445 76.4004 206.145 74.4004Z" fill="#9898FA"/>
<path d="M218.345 93.7998V121.4C218.345 126.3 225.845 126.3 225.845 121.4V98.2998C223.445 96.6998 220.945 95.1998 218.345 93.7998Z" fill="#5350B2"/>
<path d="M229.645 123.6L191.045 100.9C190.945 100.8 190.845 100.8 190.645 100.7V109.4L228.745 131.8C229.045 132 229.345 132.1 229.645 132.2V123.6Z" fill="#3F3F40"/>
<path d="M98.445 160.7L114.145 255.1C114.645 257.8 118.745 257.1 118.345 254.4L102.545 160C102.145 157.3 97.945 158 98.445 160.7Z" fill="#3F3F40"/>
<path d="M75.045 135.599L40.3449 224.799C39.3449 227.299 43.3449 228.899 44.3449 226.299L79.045 137.099C80.045 134.599 76.045 133.099 75.045 135.599Z" fill="#3F3F40"/>
<path d="M82.945 110.4L84.5449 206.1C84.5449 208.8 88.8449 208.8 88.7449 206L87.145 110.3C87.145 107.6 82.845 107.7 82.945 110.4Z" fill="#3F3F40"/>
<path d="M86.245 167.7C107.618 167.7 124.945 159.82 124.945 150.1C124.945 140.38 107.618 132.5 86.245 132.5C64.871 132.5 47.5449 140.38 47.5449 150.1C47.5449 159.82 64.871 167.7 86.245 167.7Z" fill="#3F3F40"/>
<path d="M86.245 163.099C107.618 163.099 124.945 155.22 124.945 145.499C124.945 135.779 107.618 127.899 86.245 127.899C64.871 127.899 47.5449 135.779 47.5449 145.499C47.5449 155.22 64.871 163.099 86.245 163.099Z" fill="#3F3F40"/>
<path d="M51.7449 139.6V140.8L52.2449 141.5" fill="#3F3F40"/>
<path d="M74.645 125.8L52.3449 139.6C51.7449 140 51.5449 140.9 51.9449 141.5C52.0449 141.7 52.2449 141.9 52.4449 142L86.245 161.1C87.245 161.6 88.345 161.6 89.345 161.1L111.445 148.1C113.045 146.8 112.945 144.3 111.445 144.2L77.845 125.9C76.845 125.2 75.645 125.2 74.645 125.8Z" fill="#5350B2"/>
<path d="M74.645 124.8L52.3449 138.6C51.7449 139 51.5449 139.9 51.9449 140.5C52.0449 140.7 52.2449 140.9 52.4449 141L86.245 160.1C87.245 160.6 88.345 160.6 89.345 160.1L111.445 147.1C112.245 146.6 112.545 145.6 112.145 144.8C111.945 144.5 111.745 144.3 111.445 144.1L77.845 124.8C76.845 124.2 75.545 124.2 74.645 124.8Z" fill="#F5F5FD"/>
<path d="M75.545 123L84.745 93.1995C84.745 93.1995 85.045 91.8996 86.645 92.5996L122.145 113.5C123.045 113.9 123.645 114.8 123.545 115.8C123.245 117.4 114.545 145 114.545 145C114.145 145.5 113.545 145.8 112.845 145.6C111.745 145.3 76.445 124.7 76.445 124.7C75.745 124.4 75.345 123.7 75.545 123Z" fill="#3F3F40"/>
<path d="M85.245 95.2998L121.545 116.5L114.045 141.7L77.245 121.2L85.245 95.2998Z" fill="#FBFBFC"/>
<path d="M73.245 127.999L65.145 133.099C64.645 133.399 64.545 133.999 64.845 134.499C64.945 134.599 65.045 134.699 65.145 134.799L94.345 151.399C95.245 151.899 96.345 151.899 97.245 151.399C99.145 150.299 102.345 148.299 104.345 147.099C104.945 146.799 105.145 145.999 104.745 145.499C104.645 145.299 104.545 145.199 104.345 145.099L74.945 127.999C74.345 127.699 73.745 127.699 73.245 127.999Z" fill="#5350B2"/>
<path d="M73.645 141.7L83.845 147.4C84.345 147.7 84.545 148.3 84.245 148.8C84.145 149 84.045 149.1 83.845 149.2L77.845 152.7C77.445 152.9 76.945 152.9 76.445 152.7L66.045 146.8C65.645 146.6 65.445 146.1 65.745 145.6C65.845 145.5 65.945 145.4 66.045 145.3L72.245 141.7C72.745 141.5 73.245 141.5 73.645 141.7Z" fill="#5350B2"/>
<path opacity="0.1" d="M73.245 127.999L65.145 133.099C64.645 133.399 64.545 133.999 64.845 134.499C64.945 134.599 65.045 134.699 65.145 134.799L94.345 151.399C95.245 151.899 96.345 151.899 97.245 151.399C99.145 150.299 102.345 148.299 104.345 147.099C104.945 146.799 105.145 145.999 104.745 145.499C104.645 145.299 104.545 145.199 104.345 145.099L74.945 127.999C74.345 127.699 73.745 127.699 73.245 127.999Z" fill="#3F3F40"/>
<path opacity="0.1" d="M73.645 141.7L83.845 147.4C84.345 147.7 84.545 148.3 84.245 148.8C84.145 149 84.045 149.1 83.845 149.2L77.845 152.7C77.445 152.9 76.945 152.9 76.445 152.7L66.045 146.8C65.645 146.6 65.445 146.1 65.745 145.6C65.845 145.5 65.945 145.4 66.045 145.3L72.245 141.7C72.745 141.5 73.245 141.5 73.645 141.7Z" fill="#3F3F40"/>
<path d="M25.145 156.6C25.145 156.6 29.045 162.3 29.745 161.2C30.445 160.1 31.845 151.1 31.845 151.1L23.145 147.8" fill="#FCBF81"/>
<path d="M60.745 270.1C60.845 270.8 61.345 271.3 62.045 271.3C63.245 271.4 74.545 266.5 77.245 273.1C77.545 273.9 77.245 274.9 76.445 275.4C70.845 279 64.545 281.3 57.845 282.1C55.545 282.6 53.245 282.3 51.145 281.2L51.645 268.8L60.745 270.1Z" fill="#5350B2"/>
<path d="M33.445 264.4C33.445 264.4 44.045 257.5 45.845 261.9C47.245 265.3 34.645 275.1 30.045 275.9C25.445 276.7 24.745 271.8 24.745 271.8L24.845 263.8" fill="#5350B2"/>
<path d="M54.145 164.1C54.145 164.1 64.745 186.9 64.545 269.1C64.545 269.1 62.345 274.8 47.1451 270.9L40.9451 197.4L38.2451 265.2C38.2451 265.2 31.0451 270.5 19.9451 264.1C19.9451 264.1 22.4451 173.4 28.5451 157.1" fill="#3F3F40"/>
<path d="M27.945 160C25.345 148.8 19.845 119.9 25.745 115.5C30.845 111.7 42.645 115.8 51.745 121.9C59.145 126.9 56.145 156.1 54.845 166.3C44.945 167.5 35.745 165.8 27.945 160Z" fill="#5350B2"/>
<path d="M50.145 99.0996C50.145 99.0996 50.445 114 46.245 114.3C42.045 114.6 39.545 112.9 38.145 110.1" fill="#FCBF81"/>
<path d="M44.1451 112.5V119.6C44.1451 119.6 40.345 121.1 35.045 117.5V111.7" fill="#FCBF81"/>
<path d="M49.445 101.9C49.445 101.9 54.545 96.7 51.245 92.2C47.945 87.7 44.245 90.1 44.245 90.1C44.245 90.1 43.445 88.1 39.545 87.8C35.645 87.5 34.145 91.3 32.545 92.3C30.945 93.3 28.445 96.1 28.245 98.5C28.045 100.9 31.545 114.1 35.645 115.1C39.745 116.1 44.945 117.4 49.445 101.9Z" fill="#3F3F40"/>
<path d="M28.245 114.4C28.245 114.4 19.4451 114.3 10.9451 125.5C2.44512 136.7 24.545 159.4 24.745 158.2C24.945 157 28.245 147 28.245 147C28.245 147 18.645 138.7 20.245 136.3C21.845 133.9 28.245 132.7 28.245 132.7" fill="#5350B2"/>
<path d="M85.1451 137.5C85.1451 137.5 93.3451 136.2 94.4451 134.8C95.5451 133.4 94.945 129.4 94.345 128.4C93.745 127.4 90.4451 129.1 90.4451 129.1C90.4451 129.1 90.445 128.1 89.045 128.1C87.645 128.1 85.1451 130.5 85.1451 130.5L76.545 135.5L77.245 143.6L85.1451 137.5Z" fill="#FCBF81"/>
<path d="M53.345 123.7C53.345 123.7 62.545 138.3 62.745 138.7C62.945 139.1 76.445 132.7 76.445 132.7C76.445 132.7 80.145 133.7 82.845 140.7C82.845 140.7 71.245 156.5 54.545 153.2C46.545 151.7 42.645 138 42.645 138" fill="#5350B2"/>
<path d="M10.6753 364.1V365.96H6.97528V378H4.69528V365.96H0.975281V364.1H10.6753ZM15.2644 368.58C15.5977 368.02 16.0377 367.587 16.5844 367.28C17.1444 366.96 17.8044 366.8 18.5644 366.8V369.16H17.9844C17.091 369.16 16.411 369.387 15.9444 369.84C15.491 370.293 15.2644 371.08 15.2644 372.2V378H12.9844V366.98H15.2644V368.58ZM19.9002 372.44C19.9002 371.333 20.1268 370.353 20.5802 369.5C21.0468 368.647 21.6735 367.987 22.4602 367.52C23.2602 367.04 24.1402 366.8 25.1002 366.8C25.9668 366.8 26.7202 366.973 27.3602 367.32C28.0135 367.653 28.5335 368.073 28.9202 368.58V366.98H31.2202V378H28.9202V376.36C28.5335 376.88 28.0068 377.313 27.3402 377.66C26.6735 378.007 25.9135 378.18 25.0602 378.18C24.1135 378.18 23.2468 377.94 22.4602 377.46C21.6735 376.967 21.0468 376.287 20.5802 375.42C20.1268 374.54 19.9002 373.547 19.9002 372.44ZM28.9202 372.48C28.9202 371.72 28.7602 371.06 28.4402 370.5C28.1335 369.94 27.7268 369.513 27.2202 369.22C26.7135 368.927 26.1668 368.78 25.5802 368.78C24.9935 368.78 24.4468 368.927 23.9402 369.22C23.4335 369.5 23.0202 369.92 22.7002 370.48C22.3935 371.027 22.2402 371.68 22.2402 372.44C22.2402 373.2 22.3935 373.867 22.7002 374.44C23.0202 375.013 23.4335 375.453 23.9402 375.76C24.4602 376.053 25.0068 376.2 25.5802 376.2C26.1668 376.2 26.7135 376.053 27.2202 375.76C27.7268 375.467 28.1335 375.04 28.4402 374.48C28.7602 373.907 28.9202 373.24 28.9202 372.48ZM33.4548 372.48C33.4548 371.347 33.6815 370.353 34.1348 369.5C34.6015 368.633 35.2415 367.967 36.0548 367.5C36.8682 367.033 37.8015 366.8 38.8548 366.8C40.1882 366.8 41.2882 367.12 42.1548 367.76C43.0348 368.387 43.6282 369.287 43.9348 370.46H41.4748C41.2748 369.913 40.9548 369.487 40.5148 369.18C40.0748 368.873 39.5215 368.72 38.8548 368.72C37.9215 368.72 37.1748 369.053 36.6148 369.72C36.0682 370.373 35.7948 371.293 35.7948 372.48C35.7948 373.667 36.0682 374.593 36.6148 375.26C37.1748 375.927 37.9215 376.26 38.8548 376.26C40.1748 376.26 41.0482 375.68 41.4748 374.52H43.9348C43.6148 375.64 43.0148 376.533 42.1348 377.2C41.2548 377.853 40.1615 378.18 38.8548 378.18C37.8015 378.18 36.8682 377.947 36.0548 377.48C35.2415 377 34.6015 376.333 34.1348 375.48C33.6815 374.613 33.4548 373.613 33.4548 372.48ZM50.567 372.5L55.647 378H52.567L48.487 373.26V378H46.207V363.2H48.487V371.8L52.487 366.98H55.647L50.567 372.5ZM72.577 372.22C72.577 372.633 72.55 373.007 72.497 373.34H64.077C64.143 374.22 64.47 374.927 65.057 375.46C65.643 375.993 66.363 376.26 67.217 376.26C68.443 376.26 69.31 375.747 69.817 374.72H72.277C71.943 375.733 71.337 376.567 70.457 377.22C69.59 377.86 68.51 378.18 67.217 378.18C66.163 378.18 65.217 377.947 64.377 377.48C63.55 377 62.897 376.333 62.417 375.48C61.95 374.613 61.717 373.613 61.717 372.48C61.717 371.347 61.943 370.353 62.397 369.5C62.863 368.633 63.51 367.967 64.337 367.5C65.177 367.033 66.137 366.8 67.217 366.8C68.257 366.8 69.183 367.027 69.997 367.48C70.81 367.933 71.443 368.573 71.897 369.4C72.35 370.213 72.577 371.153 72.577 372.22ZM70.197 371.5C70.183 370.66 69.883 369.987 69.297 369.48C68.71 368.973 67.983 368.72 67.117 368.72C66.33 368.72 65.657 368.973 65.097 369.48C64.537 369.973 64.203 370.647 64.097 371.5H70.197ZM79.08 375.96L82.2 366.98H84.62L80.42 378H77.7L73.52 366.98H75.96L79.08 375.96ZM96.444 372.22C96.444 372.633 96.417 373.007 96.364 373.34H87.944C88.01 374.22 88.337 374.927 88.924 375.46C89.51 375.993 90.23 376.26 91.084 376.26C92.31 376.26 93.177 375.747 93.684 374.72H96.144C95.81 375.733 95.204 376.567 94.324 377.22C93.457 377.86 92.377 378.18 91.084 378.18C90.03 378.18 89.084 377.947 88.244 377.48C87.417 377 86.764 376.333 86.284 375.48C85.817 374.613 85.584 373.613 85.584 372.48C85.584 371.347 85.81 370.353 86.264 369.5C86.73 368.633 87.377 367.967 88.204 367.5C89.044 367.033 90.004 366.8 91.084 366.8C92.124 366.8 93.05 367.027 93.864 367.48C94.677 367.933 95.31 368.573 95.764 369.4C96.217 370.213 96.444 371.153 96.444 372.22ZM94.064 371.5C94.05 370.66 93.75 369.987 93.164 369.48C92.577 368.973 91.85 368.72 90.984 368.72C90.197 368.72 89.524 368.973 88.964 369.48C88.404 369.973 88.07 370.647 87.964 371.5H94.064ZM100.968 368.58C101.301 368.02 101.741 367.587 102.288 367.28C102.848 366.96 103.508 366.8 104.268 366.8V369.16H103.688C102.794 369.16 102.114 369.387 101.648 369.84C101.194 370.293 100.968 371.08 100.968 372.2V378H98.688V366.98H100.968V368.58ZM116.283 366.98L109.523 383.18H107.163L109.403 377.82L105.063 366.98H107.603L110.703 375.38L113.923 366.98H116.283ZM125.479 368.6C125.866 368.093 126.393 367.667 127.059 367.32C127.726 366.973 128.479 366.8 129.319 366.8C130.279 366.8 131.153 367.04 131.939 367.52C132.739 367.987 133.366 368.647 133.819 369.5C134.273 370.353 134.499 371.333 134.499 372.44C134.499 373.547 134.273 374.54 133.819 375.42C133.366 376.287 132.739 376.967 131.939 377.46C131.153 377.94 130.279 378.18 129.319 378.18C128.479 378.18 127.733 378.013 127.079 377.68C126.426 377.333 125.893 376.907 125.479 376.4V383.24H123.199V366.98H125.479V368.6ZM132.179 372.44C132.179 371.68 132.019 371.027 131.699 370.48C131.393 369.92 130.979 369.5 130.459 369.22C129.953 368.927 129.406 368.78 128.819 368.78C128.246 368.78 127.699 368.927 127.179 369.22C126.673 369.513 126.259 369.94 125.939 370.5C125.633 371.06 125.479 371.72 125.479 372.48C125.479 373.24 125.633 373.907 125.939 374.48C126.259 375.04 126.673 375.467 127.179 375.76C127.699 376.053 128.246 376.2 128.819 376.2C129.406 376.2 129.953 376.053 130.459 375.76C130.979 375.453 131.393 375.013 131.699 374.44C132.019 373.867 132.179 373.2 132.179 372.44ZM146.854 372.22C146.854 372.633 146.827 373.007 146.774 373.34H138.354C138.421 374.22 138.747 374.927 139.334 375.46C139.921 375.993 140.641 376.26 141.494 376.26C142.721 376.26 143.587 375.747 144.094 374.72H146.554C146.221 375.733 145.614 376.567 144.734 377.22C143.867 377.86 142.787 378.18 141.494 378.18C140.441 378.18 139.494 377.947 138.654 377.48C137.827 377 137.174 376.333 136.694 375.48C136.227 374.613 135.994 373.613 135.994 372.48C135.994 371.347 136.221 370.353 136.674 369.5C137.141 368.633 137.787 367.967 138.614 367.5C139.454 367.033 140.414 366.8 141.494 366.8C142.534 366.8 143.461 367.027 144.274 367.48C145.087 367.933 145.721 368.573 146.174 369.4C146.627 370.213 146.854 371.153 146.854 372.22ZM144.474 371.5C144.461 370.66 144.161 369.987 143.574 369.48C142.987 368.973 142.261 368.72 141.394 368.72C140.607 368.72 139.934 368.973 139.374 369.48C138.814 369.973 138.481 370.647 138.374 371.5H144.474ZM154.658 366.8C155.524 366.8 156.298 366.98 156.978 367.34C157.671 367.7 158.211 368.233 158.598 368.94C158.984 369.647 159.178 370.5 159.178 371.5V378H156.918V371.84C156.918 370.853 156.671 370.1 156.178 369.58C155.684 369.047 155.011 368.78 154.158 368.78C153.304 368.78 152.624 369.047 152.118 369.58C151.624 370.1 151.378 370.853 151.378 371.84V378H149.098V366.98H151.378V368.24C151.751 367.787 152.224 367.433 152.798 367.18C153.384 366.927 154.004 366.8 154.658 366.8ZM167.646 366.8C168.513 366.8 169.286 366.98 169.966 367.34C170.659 367.7 171.199 368.233 171.586 368.94C171.973 369.647 172.166 370.5 172.166 371.5V378H169.906V371.84C169.906 370.853 169.659 370.1 169.166 369.58C168.673 369.047 167.999 368.78 167.146 368.78C166.293 368.78 165.613 369.047 165.106 369.58C164.613 370.1 164.366 370.853 164.366 371.84V378H162.086V366.98H164.366V368.24C164.739 367.787 165.213 367.433 165.786 367.18C166.373 366.927 166.993 366.8 167.646 366.8ZM184.994 366.98L178.234 383.18H175.874L178.114 377.82L173.774 366.98H176.314L179.414 375.38L182.634 366.98H184.994ZM202.01 372.22C202.01 372.633 201.983 373.007 201.93 373.34H193.51C193.577 374.22 193.903 374.927 194.49 375.46C195.077 375.993 195.797 376.26 196.65 376.26C197.877 376.26 198.743 375.747 199.25 374.72H201.71C201.377 375.733 200.77 376.567 199.89 377.22C199.023 377.86 197.943 378.18 196.65 378.18C195.597 378.18 194.65 377.947 193.81 377.48C192.983 377 192.33 376.333 191.85 375.48C191.383 374.613 191.15 373.613 191.15 372.48C191.15 371.347 191.377 370.353 191.83 369.5C192.297 368.633 192.943 367.967 193.77 367.5C194.61 367.033 195.57 366.8 196.65 366.8C197.69 366.8 198.617 367.027 199.43 367.48C200.243 367.933 200.877 368.573 201.33 369.4C201.783 370.213 202.01 371.153 202.01 372.22ZM199.63 371.5C199.617 370.66 199.317 369.987 198.73 369.48C198.143 368.973 197.417 368.72 196.55 368.72C195.763 368.72 195.09 368.973 194.53 369.48C193.97 369.973 193.637 370.647 193.53 371.5H199.63ZM208.874 368.84H206.834V378H204.534V368.84H203.234V366.98H204.534V366.2C204.534 364.933 204.867 364.013 205.534 363.44C206.214 362.853 207.274 362.56 208.714 362.56V364.46C208.021 364.46 207.534 364.593 207.254 364.86C206.974 365.113 206.834 365.56 206.834 366.2V366.98H208.874V368.84ZM215.515 368.84H213.475V378H211.175V368.84H209.875V366.98H211.175V366.2C211.175 364.933 211.508 364.013 212.175 363.44C212.855 362.853 213.915 362.56 215.355 362.56V364.46C214.661 364.46 214.175 364.593 213.895 364.86C213.615 365.113 213.475 365.56 213.475 366.2V366.98H215.515V368.84ZM222.315 378.18C221.275 378.18 220.335 377.947 219.495 377.48C218.655 377 217.995 376.333 217.515 375.48C217.035 374.613 216.795 373.613 216.795 372.48C216.795 371.36 217.042 370.367 217.535 369.5C218.028 368.633 218.702 367.967 219.555 367.5C220.408 367.033 221.362 366.8 222.415 366.8C223.468 366.8 224.422 367.033 225.275 367.5C226.128 367.967 226.802 368.633 227.295 369.5C227.788 370.367 228.035 371.36 228.035 372.48C228.035 373.6 227.782 374.593 227.275 375.46C226.768 376.327 226.075 377 225.195 377.48C224.328 377.947 223.368 378.18 222.315 378.18ZM222.315 376.2C222.902 376.2 223.448 376.06 223.955 375.78C224.475 375.5 224.895 375.08 225.215 374.52C225.535 373.96 225.695 373.28 225.695 372.48C225.695 371.68 225.542 371.007 225.235 370.46C224.928 369.9 224.522 369.48 224.015 369.2C223.508 368.92 222.962 368.78 222.375 368.78C221.788 368.78 221.242 368.92 220.735 369.2C220.242 369.48 219.848 369.9 219.555 370.46C219.262 371.007 219.115 371.68 219.115 372.48C219.115 373.667 219.415 374.587 220.015 375.24C220.628 375.88 221.395 376.2 222.315 376.2ZM232.569 368.58C232.902 368.02 233.342 367.587 233.889 367.28C234.449 366.96 235.109 366.8 235.869 366.8V369.16H235.289C234.396 369.16 233.716 369.387 233.249 369.84C232.796 370.293 232.569 371.08 232.569 372.2V378H230.289V366.98H232.569V368.58ZM240.625 368.84V374.94C240.625 375.353 240.718 375.653 240.905 375.84C241.105 376.013 241.438 376.1 241.905 376.1H243.305V378H241.505C240.478 378 239.692 377.76 239.145 377.28C238.598 376.8 238.325 376.02 238.325 374.94V368.84H237.025V366.98H238.325V364.24H240.625V366.98H243.305V368.84H240.625ZM247.686 363.2V378H245.406V363.2H247.686ZM260.78 372.22C260.78 372.633 260.753 373.007 260.7 373.34H252.28C252.346 374.22 252.673 374.927 253.26 375.46C253.846 375.993 254.566 376.26 255.42 376.26C256.646 376.26 257.513 375.747 258.02 374.72H260.48C260.146 375.733 259.54 376.567 258.66 377.22C257.793 377.86 256.713 378.18 255.42 378.18C254.366 378.18 253.42 377.947 252.58 377.48C251.753 377 251.1 376.333 250.62 375.48C250.153 374.613 249.92 373.613 249.92 372.48C249.92 371.347 250.146 370.353 250.6 369.5C251.066 368.633 251.713 367.967 252.54 367.5C253.38 367.033 254.34 366.8 255.42 366.8C256.46 366.8 257.386 367.027 258.2 367.48C259.013 367.933 259.646 368.573 260.1 369.4C260.553 370.213 260.78 371.153 260.78 372.22ZM258.4 371.5C258.386 370.66 258.086 369.987 257.5 369.48C256.913 368.973 256.186 368.72 255.32 368.72C254.533 368.72 253.86 368.973 253.3 369.48C252.74 369.973 252.406 370.647 252.3 371.5H258.4ZM267.023 378.18C266.157 378.18 265.377 378.027 264.683 377.72C264.003 377.4 263.463 376.973 263.063 376.44C262.663 375.893 262.45 375.287 262.423 374.62H264.783C264.823 375.087 265.043 375.48 265.443 375.8C265.857 376.107 266.37 376.26 266.983 376.26C267.623 376.26 268.117 376.14 268.463 375.9C268.823 375.647 269.003 375.327 269.003 374.94C269.003 374.527 268.803 374.22 268.403 374.02C268.017 373.82 267.397 373.6 266.543 373.36C265.717 373.133 265.043 372.913 264.523 372.7C264.003 372.487 263.55 372.16 263.163 371.72C262.79 371.28 262.603 370.7 262.603 369.98C262.603 369.393 262.777 368.86 263.123 368.38C263.47 367.887 263.963 367.5 264.603 367.22C265.257 366.94 266.003 366.8 266.843 366.8C268.097 366.8 269.103 367.12 269.863 367.76C270.637 368.387 271.05 369.247 271.103 370.34H268.823C268.783 369.847 268.583 369.453 268.223 369.16C267.863 368.867 267.377 368.72 266.763 368.72C266.163 368.72 265.703 368.833 265.383 369.06C265.063 369.287 264.903 369.587 264.903 369.96C264.903 370.253 265.01 370.5 265.223 370.7C265.437 370.9 265.697 371.06 266.003 371.18C266.31 371.287 266.763 371.427 267.363 371.6C268.163 371.813 268.817 372.033 269.323 372.26C269.843 372.473 270.29 372.793 270.663 373.22C271.037 373.647 271.23 374.213 271.243 374.92C271.243 375.547 271.07 376.107 270.723 376.6C270.377 377.093 269.883 377.48 269.243 377.76C268.617 378.04 267.877 378.18 267.023 378.18ZM277.707 378.18C276.84 378.18 276.06 378.027 275.367 377.72C274.687 377.4 274.147 376.973 273.747 376.44C273.347 375.893 273.134 375.287 273.107 374.62H275.467C275.507 375.087 275.727 375.48 276.127 375.8C276.54 376.107 277.054 376.26 277.667 376.26C278.307 376.26 278.8 376.14 279.147 375.9C279.507 375.647 279.687 375.327 279.687 374.94C279.687 374.527 279.487 374.22 279.087 374.02C278.7 373.82 278.08 373.6 277.227 373.36C276.4 373.133 275.727 372.913 275.207 372.7C274.687 372.487 274.234 372.16 273.847 371.72C273.474 371.28 273.287 370.7 273.287 369.98C273.287 369.393 273.46 368.86 273.807 368.38C274.154 367.887 274.647 367.5 275.287 367.22C275.94 366.94 276.687 366.8 277.527 366.8C278.78 366.8 279.787 367.12 280.547 367.76C281.32 368.387 281.734 369.247 281.787 370.34H279.507C279.467 369.847 279.267 369.453 278.907 369.16C278.547 368.867 278.06 368.72 277.447 368.72C276.847 368.72 276.387 368.833 276.067 369.06C275.747 369.287 275.587 369.587 275.587 369.96C275.587 370.253 275.694 370.5 275.907 370.7C276.12 370.9 276.38 371.06 276.687 371.18C276.994 371.287 277.447 371.427 278.047 371.6C278.847 371.813 279.5 372.033 280.007 372.26C280.527 372.473 280.974 372.793 281.347 373.22C281.72 373.647 281.914 374.213 281.927 374.92C281.927 375.547 281.754 376.107 281.407 376.6C281.06 377.093 280.567 377.48 279.927 377.76C279.3 378.04 278.56 378.18 277.707 378.18ZM286.671 363.2V378H284.391V363.2H286.671ZM299.584 366.98L292.824 383.18H290.464L292.704 377.82L288.364 366.98H290.904L294.004 375.38L297.224 366.98H299.584Z" fill="#5350B2"/>
</svg>
