<svg width="208" height="231" viewBox="0 0 208 231" fill="none" xmlns="http://www.w3.org/2000/svg">
<rect width="72" height="125.521" transform="translate(68 7)" fill="#FBFBFC"/>
<rect x="68" y="69.5215" width="8" height="63" rx="4" fill="url(#paint0_linear_4001_4644)"/>
<rect x="84" y="54.5215" width="8" height="78" rx="4" fill="url(#paint1_linear_4001_4644)"/>
<rect x="100" y="42.5215" width="8" height="90" rx="4" fill="url(#paint2_linear_4001_4644)"/>
<rect x="116" y="26.5215" width="8" height="106" rx="4" fill="url(#paint3_linear_4001_4644)"/>
<rect x="132" y="0.521484" width="8" height="132" rx="4" fill="url(#paint4_linear_4001_4644)"/>
<path d="M112.5 13.2822H40V135H168V13.2822H157.535" stroke="#5350B2" stroke-width="10" stroke-linecap="round"/>
<path d="M24 178.496V183.92H10.032V192.512H20.736V197.84H10.032V212H3.312V178.496H24ZM32.1731 182.24C30.9891 182.24 29.9971 181.872 29.1971 181.136C28.4291 180.368 28.0451 179.424 28.0451 178.304C28.0451 177.184 28.4291 176.256 29.1971 175.52C29.9971 174.752 30.9891 174.368 32.1731 174.368C33.3571 174.368 34.3331 174.752 35.1011 175.52C35.9011 176.256 36.3011 177.184 36.3011 178.304C36.3011 179.424 35.9011 180.368 35.1011 181.136C34.3331 181.872 33.3571 182.24 32.1731 182.24ZM35.4851 185.408V212H28.7651V185.408H35.4851ZM56.8605 185.024C60.0285 185.024 62.5885 186.032 64.5405 188.048C66.4925 190.032 67.4685 192.816 67.4685 196.4V212H60.7485V197.312C60.7485 195.2 60.2205 193.584 59.1645 192.464C58.1085 191.312 56.6685 190.736 54.8445 190.736C52.9885 190.736 51.5165 191.312 50.4285 192.464C49.3725 193.584 48.8445 195.2 48.8445 197.312V212H42.1245V185.408H48.8445V188.72C49.7405 187.568 50.8765 186.672 52.2525 186.032C53.6605 185.36 55.1965 185.024 56.8605 185.024ZM96.6589 178.496V183.92H87.7309V212H81.0109V183.92H72.0829V178.496H96.6589ZM108.282 189.536C109.146 188.128 110.266 187.024 111.642 186.224C113.05 185.424 114.65 185.024 116.442 185.024V192.08H114.666C112.554 192.08 110.954 192.576 109.866 193.568C108.81 194.56 108.282 196.288 108.282 198.752V212H101.562V185.408H108.282V189.536ZM119.24 198.608C119.24 195.92 119.768 193.536 120.824 191.456C121.912 189.376 123.368 187.776 125.192 186.656C127.048 185.536 129.112 184.976 131.384 184.976C133.368 184.976 135.096 185.376 136.568 186.176C138.072 186.976 139.272 187.984 140.168 189.2V185.408H146.936V212H140.168V208.112C139.304 209.36 138.104 210.4 136.568 211.232C135.064 212.032 133.32 212.432 131.336 212.432C129.096 212.432 127.048 211.856 125.192 210.704C123.368 209.552 121.912 207.936 120.824 205.856C119.768 203.744 119.24 201.328 119.24 198.608ZM140.168 198.704C140.168 197.072 139.848 195.68 139.208 194.528C138.568 193.344 137.704 192.448 136.616 191.84C135.528 191.2 134.36 190.88 133.112 190.88C131.864 190.88 130.712 191.184 129.656 191.792C128.6 192.4 127.736 193.296 127.064 194.48C126.424 195.632 126.104 197.008 126.104 198.608C126.104 200.208 126.424 201.616 127.064 202.832C127.736 204.016 128.6 204.928 129.656 205.568C130.744 206.208 131.896 206.528 133.112 206.528C134.36 206.528 135.528 206.224 136.616 205.616C137.704 204.976 138.568 204.08 139.208 202.928C139.848 201.744 140.168 200.336 140.168 198.704ZM151.771 198.704C151.771 195.952 152.332 193.552 153.452 191.504C154.572 189.424 156.124 187.824 158.108 186.704C160.092 185.552 162.364 184.976 164.924 184.976C168.22 184.976 170.94 185.808 173.084 187.472C175.26 189.104 176.716 191.408 177.452 194.384H170.204C169.82 193.232 169.164 192.336 168.236 191.696C167.34 191.024 166.22 190.688 164.876 190.688C162.956 190.688 161.436 191.392 160.316 192.8C159.196 194.176 158.636 196.144 158.636 198.704C158.636 201.232 159.196 203.2 160.316 204.608C161.436 205.984 162.956 206.672 164.876 206.672C167.596 206.672 169.372 205.456 170.204 203.024H177.452C176.716 205.904 175.26 208.192 173.084 209.888C170.908 211.584 168.188 212.432 164.924 212.432C162.364 212.432 160.092 211.872 158.108 210.752C156.124 209.6 154.572 208 153.452 205.952C152.332 203.872 151.771 201.456 151.771 198.704ZM198.119 212L189.095 200.672V212H182.375V176.48H189.095V196.688L198.023 185.408H206.759L195.047 198.752L206.855 212H198.119Z" fill="#5350B2"/>
<defs>
<linearGradient id="paint0_linear_4001_4644" x1="72.0655" y1="69.5215" x2="71.8316" y2="126.851" gradientUnits="userSpaceOnUse">
<stop offset="0.5" stop-color="#5350B2"/>
<stop offset="1" stop-color="#C6A5F3" stop-opacity="0.8"/>
</linearGradient>
<linearGradient id="paint1_linear_4001_4644" x1="87.8851" y1="54.5215" x2="88.2876" y2="126.904" gradientUnits="userSpaceOnUse">
<stop offset="0.501" stop-color="#5350B2"/>
<stop offset="1" stop-color="#C6A5F3" stop-opacity="0.8"/>
</linearGradient>
<linearGradient id="paint2_linear_4001_4644" x1="103.895" y1="42.5215" x2="104.234" y2="128.321" gradientUnits="userSpaceOnUse">
<stop offset="0.5" stop-color="#5350B2"/>
<stop offset="1" stop-color="#C6A5F3" stop-opacity="0.8"/>
</linearGradient>
<linearGradient id="paint3_linear_4001_4644" x1="120.218" y1="26.5215" x2="119.499" y2="125.855" gradientUnits="userSpaceOnUse">
<stop offset="0.501" stop-color="#5350B2"/>
<stop offset="1" stop-color="#C6A5F3" stop-opacity="0.8"/>
</linearGradient>
<linearGradient id="paint4_linear_4001_4644" x1="136.041" y1="0.521484" x2="135.762" y2="132.521" gradientUnits="userSpaceOnUse">
<stop offset="0.5" stop-color="#5350B2"/>
<stop offset="1" stop-color="#C6A5F3" stop-opacity="0.8"/>
</linearGradient>
</defs>
</svg>
